# 3ds Max Wavefront OBJ Exporter v0.97b - (c)2007 guruware
# File Created: 19.12.2015 15:22:59

mtllib pianozl.mtl

#
# object piano
#

v  -29.5276 1.5748 5.9055
v  -29.5276 1.5748 17.7165
v  -29.5276 3.9370 9.4488
v  -27.1654 1.5748 17.7165
v  -27.1654 1.5748 5.9055
v  -27.1654 3.9370 15.3543
v  -29.5276 3.9370 15.3543
v  -27.1654 3.9370 9.4488
v  -27.1654 29.9213 5.9055
v  -27.1654 21.2598 9.4488
v  -29.5276 21.2598 9.4488
v  -29.5276 29.9213 5.9055
v  -29.0551 1.5748 17.9401
v  -28.3465 1.5748 18.0709
v  -29.0551 21.2598 17.9401
v  -27.1654 21.2598 15.3543
v  -27.1654 21.2598 17.7165
v  -29.5276 21.2598 15.3543
v  -29.5276 21.2598 17.7165
v  -27.1654 25.9843 17.7165
v  -29.5276 25.9843 17.7165
v  -27.1654 26.8591 17.5416
v  -29.5276 26.8591 17.5416
v  -27.1654 27.3841 17.0166
v  -29.5276 27.3841 17.0166
v  -27.1654 27.5591 16.1417
v  -29.5276 27.5591 16.1417
v  -29.5276 27.5591 11.0243
v  -27.1654 27.5591 11.0243
v  -29.5276 28.7684 8.4413
v  -29.5276 28.0968 9.1758
v  -27.1654 28.0968 9.1758
v  -29.5276 27.6916 10.0392
v  -27.1654 27.6916 10.0392
v  -29.5276 29.9213 7.0866
v  -29.5276 39.3701 7.0866
v  -27.6378 1.5748 17.9401
v  -27.6378 21.2598 17.9401
v  -28.3465 21.2598 18.0647
v  -29.5276 46.4567 7.0866
v  -29.5276 47.2441 7.0866
v  -29.5276 47.2441 5.9055
v  -29.0551 29.9213 7.3776
v  -28.3465 29.9081 7.4803
v  -29.0551 39.3701 7.3776
v  -29.0551 46.4567 7.3776
v  -28.3465 46.4436 7.4803
v  -29.0551 47.2441 7.3776
v  -27.6378 29.9213 7.3776
v  -27.1654 29.9213 7.0866
v  -27.6378 39.3701 7.3776
v  -28.3465 39.3569 7.4803
v  -27.6378 46.4567 7.3776
v  -27.1654 46.4567 7.0866
v  -27.6378 47.2441 7.3776
v  -28.3465 47.2310 7.4803
v  -27.1654 47.2441 5.9055
v  -27.1654 47.2441 7.0866
v  -27.1654 39.3701 7.0866
v  -27.1654 29.9213 7.4803
v  -27.1654 28.7684 8.4413
v  -29.5276 29.9213 7.4803
v  -28.8396 0.0000 16.0422
v  -28.3465 0.0000 15.8380
v  -29.0439 0.0000 16.5354
v  -28.8396 0.3248 17.0286
v  -29.0439 0.3248 16.5354
v  -28.8396 0.0000 17.0286
v  -28.3465 0.3248 17.2329
v  -28.3465 0.0000 17.2329
v  -27.8533 0.3248 17.0286
v  -27.8533 0.0000 17.0286
v  -27.6490 0.3248 16.5354
v  -27.6490 0.0000 16.5354
v  -27.8533 0.3248 16.0422
v  -27.8533 0.0000 16.0422
v  -28.3465 0.3248 15.8380
v  -28.8396 0.3248 16.0422
v  -29.1216 1.5748 15.7603
v  -28.3465 0.6441 15.4392
v  -29.1216 0.6441 15.7603
v  -28.3465 1.5748 15.4392
v  -27.5713 0.6441 15.7603
v  -27.5713 1.5748 15.7603
v  -27.2502 0.6441 16.5354
v  -27.2502 1.5748 16.5354
v  -27.5713 0.6441 17.3106
v  -27.5713 1.5748 17.3106
v  -28.3465 0.6441 17.6316
v  -28.3465 1.5748 17.6316
v  -29.1216 0.6441 17.3106
v  -29.1216 1.5748 17.3106
v  -29.4427 0.6441 16.5354
v  -29.4427 1.5748 16.5354
v  -28.7402 1.5748 5.1181
v  28.7402 1.5748 -5.1181
v  28.7402 1.5748 5.1181
v  -29.5276 47.2441 6.6929
v  -27.1705 47.2441 6.6929
v  -29.5276 47.5035 6.6929
v  29.8059 47.8740 6.9713
v  29.8059 47.5035 6.9713
v  29.8059 47.8740 -6.1839
v  -29.8059 47.8740 -6.1839
v  -29.8059 47.5035 -6.1839
v  -29.8059 47.8740 6.9713
v  29.8059 47.5035 -6.1839
v  29.5276 47.5035 6.6929
v  29.5276 47.5035 -5.9055
v  -29.5276 47.5035 -5.9055
v  -29.8059 47.5035 6.9713
v  30.0843 47.8740 7.2497
v  30.0843 48.3194 7.2497
v  -30.0843 47.8740 7.2497
v  -30.0843 48.3194 -6.4623
v  -30.0843 47.8740 -6.4623
v  -30.0843 48.3194 7.2497
v  30.0843 47.8740 -6.4623
v  30.0843 48.3194 -6.4623
v  27.1705 47.2441 6.6929
v  -27.1654 47.2300 7.0866
v  27.1654 47.2300 7.0866
v  25.9843 46.0489 6.5354
v  -25.9843 31.0883 6.5354
v  25.9843 31.0883 6.5354
v  26.5748 30.4977 7.0866
v  26.5748 46.6395 7.0866
v  -26.5748 30.4977 7.0866
v  -26.5748 46.6395 7.0866
v  -27.1654 29.9072 7.0866
v  27.1654 29.9072 7.0866
v  -25.9843 46.0489 6.5354
v  -27.1654 29.3113 7.7324
v  -27.1654 28.6326 8.2980
v  27.1654 28.6326 8.2980
v  27.1654 29.3113 7.7324
v  -27.1654 27.9312 9.0650
v  27.1654 27.9312 9.0650
v  -27.1654 27.5025 9.9804
v  27.1654 27.5025 9.9804
v  -27.1654 27.3622 11.0103
v  27.1654 27.3622 11.0103
v  -24.5140 25.9843 11.0103
v  24.5221 25.9884 11.0104
v  27.1654 25.9891 11.0103
v  24.5140 25.9843 16.5354
v  -27.1654 25.9843 16.5354
v  -24.5140 25.9843 16.5354
v  -27.1654 24.4094 16.5354
v  -24.5140 25.5748 11.0103
v  24.5159 25.5748 11.0172
v  -24.5140 24.4094 16.5354
v  27.1654 25.9843 16.5354
v  24.5140 24.4094 16.5354
v  24.5174 25.5748 10.2231
v  -24.5109 25.5748 10.2229
v  -24.5109 24.4095 10.2229
v  -27.1654 25.9891 11.0103
v  24.5173 24.4095 10.2230
v  29.5276 21.2598 5.9055
v  27.1654 21.2598 17.7165
v  -27.1654 24.4094 17.7165
v  27.1654 24.4094 17.7165
v  27.1654 24.4094 16.5354
v  -23.7485 25.6750 14.2226
v  -23.2078 25.5247 10.6395
v  -23.7485 25.5247 10.6395
v  -23.7485 25.3600 14.5550
v  -23.2078 25.6750 14.2226
v  -23.2078 25.3600 14.5550
v  -23.7485 25.3600 10.6395
v  23.2084 25.6750 14.2226
v  23.7490 25.5247 10.6395
v  23.2084 25.5247 10.6395
v  23.2084 25.3600 14.5550
v  23.7490 25.6750 14.2226
v  23.7490 25.3600 14.5550
v  23.2084 25.3600 10.6395
v  22.2692 25.6750 14.2226
v  22.8099 25.5247 10.6395
v  22.2692 25.5247 10.6395
v  22.2692 25.3600 14.5550
v  22.8099 25.6750 14.2226
v  22.8099 25.3600 14.5550
v  22.2692 25.3600 10.6395
v  20.3910 25.6750 14.2226
v  20.9316 25.5247 10.6395
v  20.3910 25.5247 10.6395
v  20.3910 25.3600 14.5550
v  20.9316 25.6750 14.2226
v  20.9316 25.3600 14.5550
v  20.3910 25.3600 10.6395
v  19.4518 25.6750 14.2226
v  19.9925 25.5247 10.6395
v  19.4518 25.5247 10.6395
v  19.4518 25.3600 14.5550
v  19.9925 25.6750 14.2226
v  19.9925 25.3600 14.5550
v  19.4518 25.3600 10.6395
v  18.5127 25.6750 14.2226
v  19.0533 25.5247 10.6395
v  18.5127 25.5247 10.6395
v  18.5127 25.3600 14.5550
v  19.0533 25.6750 14.2226
v  19.0533 25.3600 14.5550
v  18.5127 25.3600 10.6395
v  16.6344 25.6750 14.2226
v  17.1751 25.5247 10.6395
v  16.6344 25.5247 10.6395
v  16.6344 25.3600 14.5550
v  17.1751 25.6750 14.2226
v  17.1751 25.3600 14.5550
v  16.6344 25.3600 10.6395
v  15.6953 25.6750 14.2226
v  16.2359 25.5247 10.6395
v  15.6953 25.5247 10.6395
v  15.6953 25.3600 14.5550
v  16.2359 25.6750 14.2226
v  16.2359 25.3600 14.5550
v  15.6953 25.3600 10.6395
v  13.8170 25.6750 14.2226
v  14.3576 25.5247 10.6395
v  13.8170 25.5247 10.6395
v  13.8170 25.3600 14.5550
v  14.3576 25.6750 14.2226
v  14.3576 25.3600 14.5550
v  13.8170 25.3600 10.6395
v  12.8779 25.6750 14.2226
v  13.4185 25.5247 10.6395
v  12.8779 25.5247 10.6395
v  12.8779 25.3600 14.5550
v  13.4185 25.6750 14.2226
v  13.4185 25.3600 14.5550
v  12.8779 25.3600 10.6395
v  11.9387 25.6750 14.2226
v  12.4794 25.5247 10.6395
v  11.9387 25.5247 10.6395
v  11.9387 25.3600 14.5550
v  12.4794 25.6750 14.2226
v  12.4794 25.3600 14.5550
v  11.9387 25.3600 10.6395
v  10.0605 25.6750 14.2226
v  10.6011 25.5247 10.6395
v  10.0605 25.5247 10.6395
v  10.0605 25.3600 14.5550
v  10.6011 25.6750 14.2226
v  10.6011 25.3600 14.5550
v  10.0605 25.3600 10.6395
v  9.1213 25.6750 14.2226
v  9.6620 25.5247 10.6395
v  9.1213 25.5247 10.6395
v  9.1213 25.3600 14.5550
v  9.6620 25.6750 14.2226
v  9.6620 25.3600 14.5550
v  9.1213 25.3600 10.6395
v  7.2430 25.6750 14.2226
v  7.7837 25.5247 10.6395
v  7.2430 25.5247 10.6395
v  7.2430 25.3600 14.5550
v  7.7837 25.6750 14.2226
v  7.7837 25.3600 14.5550
v  7.2430 25.3600 10.6395
v  6.3039 25.6750 14.2226
v  6.8445 25.5247 10.6395
v  6.3039 25.5247 10.6395
v  6.3039 25.3600 14.5550
v  6.8445 25.6750 14.2226
v  6.8445 25.3600 14.5550
v  6.3039 25.3600 10.6395
v  5.3648 25.6750 14.2226
v  5.9054 25.5247 10.6395
v  5.3648 25.5247 10.6395
v  5.3648 25.3600 14.5550
v  5.9054 25.6750 14.2226
v  5.9054 25.3600 14.5550
v  5.3648 25.3600 10.6395
v  3.4865 25.6750 14.2226
v  4.0271 25.5247 10.6395
v  3.4865 25.5247 10.6395
v  3.4865 25.3600 14.5550
v  4.0271 25.6750 14.2226
v  4.0271 25.3600 14.5550
v  3.4865 25.3600 10.6395
v  2.5474 25.6750 14.2226
v  3.0880 25.5247 10.6395
v  2.5474 25.5247 10.6395
v  2.5474 25.3600 14.5550
v  3.0880 25.6750 14.2226
v  3.0880 25.3600 14.5550
v  2.5474 25.3600 10.6395
v  0.6691 25.6750 14.2226
v  1.2097 25.5247 10.6395
v  0.6691 25.5247 10.6395
v  0.6691 25.3600 14.5550
v  1.2097 25.6750 14.2226
v  1.2097 25.3600 14.5550
v  0.6691 25.3600 10.6395
v  -0.2701 25.6750 14.2226
v  0.2706 25.5247 10.6395
v  -0.2701 25.5247 10.6395
v  -0.2701 25.3600 14.5550
v  0.2706 25.6750 14.2226
v  0.2706 25.3600 14.5550
v  -0.2701 25.3600 10.6395
v  -1.2092 25.6750 14.2226
v  -0.6686 25.5247 10.6395
v  -1.2092 25.5247 10.6395
v  -1.2092 25.3600 14.5550
v  -0.6686 25.6750 14.2226
v  -0.6686 25.3600 14.5550
v  -1.2092 25.3600 10.6395
v  -3.0875 25.6750 14.2226
v  -2.5468 25.5247 10.6395
v  -3.0875 25.5247 10.6395
v  -3.0875 25.3600 14.5550
v  -2.5468 25.6750 14.2226
v  -2.5468 25.3600 14.5550
v  -3.0875 25.3600 10.6395
v  -4.0266 25.6750 14.2226
v  -3.4860 25.5247 10.6395
v  -4.0266 25.5247 10.6395
v  -4.0266 25.3600 14.5550
v  -3.4860 25.6750 14.2226
v  -3.4860 25.3600 14.5550
v  -4.0266 25.3600 10.6395
v  -5.9049 25.6750 14.2226
v  -5.3642 25.5247 10.6395
v  -5.9049 25.5247 10.6395
v  -5.9049 25.3600 14.5550
v  -5.3642 25.6750 14.2226
v  -5.3642 25.3600 14.5550
v  -5.9049 25.3600 10.6395
v  -6.8440 25.6750 14.2226
v  -6.3034 25.5247 10.6395
v  -6.8440 25.5247 10.6395
v  -6.8440 25.3600 14.5550
v  -6.3034 25.6750 14.2226
v  -6.3034 25.3600 14.5550
v  -6.8440 25.3600 10.6395
v  -7.7832 25.6750 14.2226
v  -7.2425 25.5247 10.6395
v  -7.7832 25.5247 10.6395
v  -7.7832 25.3600 14.5550
v  -7.2425 25.6750 14.2226
v  -7.2425 25.3600 14.5550
v  -7.7832 25.3600 10.6395
v  -9.6614 25.6750 14.2226
v  -9.1208 25.5247 10.6395
v  -9.6614 25.5247 10.6395
v  -9.6614 25.3600 14.5550
v  -9.1208 25.6750 14.2226
v  -9.1208 25.3600 14.5550
v  -9.6614 25.3600 10.6395
v  -10.6006 25.6750 14.2226
v  -10.0599 25.5247 10.6395
v  -10.6006 25.5247 10.6395
v  -10.6006 25.3600 14.5550
v  -10.0599 25.6750 14.2226
v  -10.0599 25.3600 14.5550
v  -10.6006 25.3600 10.6395
v  -12.4788 25.6750 14.2226
v  -11.9382 25.5247 10.6395
v  -12.4788 25.5247 10.6395
v  -12.4788 25.3600 14.5550
v  -11.9382 25.6750 14.2226
v  -11.9382 25.3600 14.5550
v  -12.4788 25.3600 10.6395
v  -13.4180 25.6750 14.2226
v  -12.8773 25.5247 10.6395
v  -13.4180 25.5247 10.6395
v  -13.4180 25.3600 14.5550
v  -12.8773 25.6750 14.2226
v  -12.8773 25.3600 14.5550
v  -13.4180 25.3600 10.6395
v  -14.3571 25.6750 14.2226
v  -13.8165 25.5247 10.6395
v  -14.3571 25.5247 10.6395
v  -14.3571 25.3600 14.5550
v  -13.8165 25.6750 14.2226
v  -13.8165 25.3600 14.5550
v  -14.3571 25.3600 10.6395
v  -16.2354 25.6750 14.2226
v  -15.6947 25.5247 10.6395
v  -16.2354 25.5247 10.6395
v  -16.2354 25.3600 14.5550
v  -15.6947 25.6750 14.2226
v  -15.6947 25.3600 14.5550
v  -16.2354 25.3600 10.6395
v  -17.1745 25.6750 14.2226
v  -16.6339 25.5247 10.6395
v  -17.1745 25.5247 10.6395
v  -17.1745 25.3600 14.5550
v  -16.6339 25.6750 14.2226
v  -16.6339 25.3600 14.5550
v  -17.1745 25.3600 10.6395
v  -19.0528 25.6750 14.2226
v  -18.5122 25.5247 10.6395
v  -19.0528 25.5247 10.6395
v  -19.0528 25.3600 14.5550
v  -18.5122 25.6750 14.2226
v  -18.5122 25.3600 14.5550
v  -19.0528 25.3600 10.6395
v  -19.9919 25.6750 14.2226
v  -19.4513 25.5247 10.6395
v  -19.9919 25.5247 10.6395
v  -19.9919 25.3600 14.5550
v  -19.4513 25.6750 14.2226
v  -19.4513 25.3600 14.5550
v  -19.9919 25.3600 10.6395
v  -20.9311 25.6750 14.2226
v  -20.3904 25.5247 10.6395
v  -20.9311 25.5247 10.6395
v  -20.9311 25.3600 14.5550
v  -20.3904 25.6750 14.2226
v  -20.3904 25.3600 14.5550
v  -20.9311 25.3600 10.6395
v  -22.8093 25.6750 14.2226
v  -22.2687 25.5247 10.6395
v  -22.8093 25.5247 10.6395
v  -22.8093 25.3600 14.5550
v  -22.2687 25.6750 14.2226
v  -22.2687 25.3600 14.5550
v  -22.8093 25.3600 10.6395
v  -24.4095 25.4331 16.1417
v  24.4094 25.4331 10.6299
v  -24.4095 25.4331 10.6299
v  -24.4095 24.4095 16.1417
v  24.4094 25.4331 16.1417
v  24.4094 24.4095 16.1417
v  -24.4095 24.4095 10.6299
v  29.5276 47.2420 5.9055
v  29.5276 0.0000 -5.9055
v  -29.5276 0.0000 -5.9055
v  -29.5276 47.2420 5.9055
v  29.5276 47.5035 5.9055
v  -29.5276 47.5035 5.9055
v  29.5276 47.2441 6.6929
v  -29.5276 21.2598 5.9055
v  29.5276 0.0000 5.9055
v  -29.5276 0.0000 5.9055
v  28.7402 0.0000 5.1181
v  28.7402 0.0000 -5.1181
v  -28.7402 0.0000 5.1181
v  -28.7402 0.0000 -5.1181
v  -28.7402 1.5748 -5.1181
v  29.5276 1.5748 5.9055
v  29.5276 3.9370 9.4488
v  29.5276 1.5748 17.7165
v  27.1654 1.5748 17.7165
v  27.1654 3.9370 15.3543
v  27.1654 1.5748 5.9055
v  27.1654 3.9370 9.4488
v  29.5276 3.9370 15.3543
v  27.1654 21.2598 9.4488
v  27.1654 29.9213 5.9055
v  29.5276 29.9213 5.9055
v  29.5276 21.2598 9.4488
v  29.0551 1.5748 17.9401
v  29.0551 21.2598 17.9401
v  28.3465 1.5748 18.0709
v  27.1654 21.2598 15.3543
v  29.5276 21.2598 15.3543
v  29.5276 21.2598 17.7165
v  29.5276 25.9843 17.7165
v  27.1654 25.9843 17.7165
v  29.5276 26.8591 17.5416
v  27.1654 26.8591 17.5416
v  29.5276 27.3841 17.0166
v  27.1654 27.3841 17.0166
v  29.5276 27.5591 16.1417
v  27.1654 27.5591 16.1417
v  29.5276 27.5591 11.0243
v  27.1654 27.5591 11.0243
v  29.5276 28.7684 8.4413
v  27.1654 28.0968 9.1758
v  29.5276 28.0968 9.1758
v  27.1654 27.6916 10.0392
v  29.5276 27.6916 10.0392
v  29.5276 39.3701 7.0866
v  29.5276 29.9213 7.0866
v  27.6378 1.5748 17.9401
v  27.6378 21.2598 17.9401
v  28.3465 21.2598 18.0647
v  29.5276 46.4567 7.0866
v  29.5276 47.2441 5.9055
v  29.5276 47.2441 7.0866
v  29.0551 29.9213 7.3776
v  29.0551 39.3701 7.3776
v  28.3465 29.9081 7.4803
v  29.0551 46.4567 7.3776
v  29.0551 47.2441 7.3776
v  28.3465 46.4436 7.4803
v  27.6378 29.9213 7.3776
v  27.6378 39.3701 7.3776
v  27.1654 29.9213 7.0866
v  28.3465 39.3569 7.4803
v  27.6378 46.4567 7.3776
v  27.6378 47.2441 7.3776
v  27.1654 46.4567 7.0866
v  28.3465 47.2310 7.4803
v  27.1654 47.2441 5.9055
v  27.1654 47.2441 7.0866
v  27.1654 39.3701 7.0866
v  27.1654 28.7684 8.4413
v  27.1654 29.9213 7.4803
v  29.5276 29.9213 7.4803
v  28.8396 0.0000 16.0422
v  29.0439 0.0000 16.5354
v  28.3465 0.0000 15.8380
v  28.8396 0.3248 17.0286
v  28.8396 0.0000 17.0286
v  28.3465 0.3248 17.2329
v  28.3465 0.0000 17.2329
v  27.8533 0.3248 17.0286
v  27.8533 0.0000 17.0286
v  27.6490 0.3248 16.5354
v  27.6490 0.0000 16.5354
v  27.8533 0.3248 16.0422
v  27.8533 0.0000 16.0422
v  28.3465 0.3248 15.8380
v  28.8396 0.3248 16.0422
v  29.0439 0.3248 16.5354
v  29.1216 1.5748 15.7603
v  28.3465 0.6441 15.4392
v  28.3465 1.5748 15.4392
v  27.5713 0.6441 15.7603
v  27.5713 1.5748 15.7603
v  27.2502 0.6441 16.5354
v  27.2502 1.5748 16.5354
v  27.5713 0.6441 17.3106
v  27.5713 1.5748 17.3106
v  28.3465 0.6441 17.6316
v  28.3465 1.5748 17.6316
v  29.1216 0.6441 17.3106
v  29.1216 1.5748 17.3106
v  29.4427 0.6441 16.5354
v  29.4427 1.5748 16.5354
v  29.1216 0.6441 15.7603
v  -23.2078 25.3600 10.6395
v  23.7490 25.3600 10.6395
v  22.8099 25.3600 10.6395
v  20.9316 25.3600 10.6395
v  19.9925 25.3600 10.6395
v  19.0533 25.3600 10.6395
v  17.1751 25.3600 10.6395
v  16.2359 25.3600 10.6395
v  14.3576 25.3600 10.6395
v  13.4185 25.3600 10.6395
v  12.4794 25.3600 10.6395
v  10.6011 25.3600 10.6395
v  9.6620 25.3600 10.6395
v  7.7837 25.3600 10.6395
v  6.8445 25.3600 10.6395
v  5.9054 25.3600 10.6395
v  4.0271 25.3600 10.6395
v  3.0880 25.3600 10.6395
v  1.2097 25.3600 10.6395
v  0.2706 25.3600 10.6395
v  -0.6686 25.3600 10.6395
v  -2.5468 25.3600 10.6395
v  -3.4860 25.3600 10.6395
v  -5.3642 25.3600 10.6395
v  -6.3034 25.3600 10.6395
v  -7.2425 25.3600 10.6395
v  -9.1208 25.3600 10.6395
v  -10.0599 25.3600 10.6395
v  -11.9382 25.3600 10.6395
v  -12.8773 25.3600 10.6395
v  -13.8165 25.3600 10.6395
v  -15.6947 25.3600 10.6395
v  -16.6339 25.3600 10.6395
v  -18.5122 25.3600 10.6395
v  -19.4513 25.3600 10.6395
v  -20.3904 25.3600 10.6395
v  -22.2687 25.3600 10.6395
v  24.4094 24.4095 10.6299
v  -27.1653 32.5715 7.7663
v  27.1654 32.5715 7.7663
v  27.1654 33.1195 8.2545
v  -27.1653 32.0726 7.6961
v  27.1654 32.0726 7.6961
v  -27.1653 31.4111 8.0143
v  27.1654 31.4111 8.0143
v  -27.1653 32.0410 7.4929
v  27.1654 32.0410 7.4929
v  27.1654 31.3082 7.8453
v  -27.1653 32.6580 7.5796
v  27.1654 32.6580 7.5796
v  -27.1653 33.2651 8.1205
v  27.1654 33.2651 8.1205
v  -27.1653 34.1827 9.3766
v  27.1654 34.2000 9.3635
v  -27.1653 27.2239 10.9231
v  -27.1653 31.3082 7.8453
v  -27.1653 34.0598 9.4691
v  -27.1653 33.1195 8.2545
v  -27.1653 27.3317 11.0884
v  27.1654 27.3317 11.0884
v  27.1654 27.2239 10.9231
v  27.1654 34.0425 9.4822
v  -6.3702 30.4654 9.3830
v  7.8740 29.3114 9.6349
v  6.3702 30.4654 9.3830
v  -6.3702 30.4486 9.3061
v  7.8740 29.2947 9.5580
v  -7.8740 29.2947 9.5580
v  6.3702 30.4486 9.3061
v  -7.8740 29.3114 9.6349
v  -1.0483 1.2110 10.7838
v  -1.0483 1.5604 10.7838
v  -0.8683 1.2110 8.4886
v  -0.9079 1.5604 11.3080
v  -0.9079 1.2110 11.3080
v  -0.5242 1.5604 11.6917
v  -0.5242 1.2110 11.6917
v  0.0000 1.5604 11.8321
v  0.0000 1.2110 11.8321
v  0.5242 1.5604 11.6917
v  0.5242 1.2110 11.6917
v  0.9079 1.5604 11.3080
v  0.9079 1.2110 11.3080
v  1.0483 1.5604 10.7838
v  0.7486 1.2110 6.9613
v  0.7486 1.9280 6.9613
v  0.8036 1.2110 7.6636
v  0.8673 1.5604 8.4755
v  -0.7486 1.2110 6.9613
v  -0.8036 1.2110 7.6636
v  1.0483 1.2110 10.7838
v  0.8049 1.9280 7.6801
v  -0.8049 1.9280 7.6801
v  -0.8673 1.5604 8.4755
v  0.7486 1.2110 5.2141
v  0.7486 1.9280 5.2141
v  -0.7486 1.2110 5.2141
v  -0.7486 1.9280 5.2141
v  -0.7486 1.9280 6.9613
v  0.8683 1.2110 8.4886
v  5.1527 1.2110 11.7804
v  4.5442 1.5604 11.9459
v  4.5442 1.2110 11.9459
v  3.9508 1.5604 11.8200
v  3.9508 1.2110 11.8200
v  3.5397 1.5604 11.4094
v  3.5397 1.2110 11.4094
v  3.3642 1.5604 10.8656
v  3.3642 1.2110 10.8656
v  3.2975 1.5604 10.1957
v  3.2973 1.2110 10.1990
v  3.3072 1.5604 9.4112
v  3.3068 1.2110 9.4161
v  3.3260 1.5604 8.5104
v  3.3250 1.2110 8.5235
v  3.3884 1.9280 7.7150
v  3.3897 1.2110 7.6986
v  3.4447 1.9280 6.9963
v  3.4447 1.2110 6.9963
v  3.4447 1.9280 5.3073
v  3.4447 1.2110 5.3073
v  4.9419 1.2110 5.3073
v  4.9419 1.9280 6.9963
v  4.9419 1.2110 6.9963
v  4.9982 1.9280 7.7150
v  4.9969 1.2110 7.6986
v  5.0606 1.5604 8.5104
v  5.0616 1.2110 8.5235
v  5.2185 1.5604 9.3370
v  5.2189 1.2110 9.3420
v  5.6787 1.5604 10.0332
v  5.6789 1.2110 10.0365
v  5.8030 1.5604 10.7192
v  5.8030 1.2110 10.7192
v  5.6556 1.5604 11.3902
v  5.6556 1.2110 11.3902
v  5.1527 1.5604 11.7804
v  -5.1527 1.2110 11.7804
v  -4.5442 1.5604 11.9459
v  -5.1527 1.5604 11.7804
v  -4.5442 1.2110 11.9459
v  -3.9508 1.5604 11.8200
v  -3.9508 1.2110 11.8200
v  -3.5397 1.5604 11.4094
v  -3.5397 1.2110 11.4094
v  -3.3642 1.5604 10.8656
v  -3.3642 1.2110 10.8656
v  -3.2975 1.5604 10.1957
v  -3.2973 1.2110 10.1990
v  -3.3072 1.5604 9.4112
v  -3.3068 1.2110 9.4161
v  -3.3260 1.5604 8.5104
v  -3.3250 1.2110 8.5235
v  -3.3884 1.9280 7.7150
v  -3.3897 1.2110 7.6986
v  -3.4447 1.9280 6.9963
v  -3.4447 1.2110 6.9963
v  -3.4447 1.9280 5.3073
v  -4.9419 1.2110 5.3073
v  -4.9419 1.9280 6.9963
v  -4.9419 1.9280 5.3073
v  -4.9419 1.2110 6.9963
v  -4.9982 1.9280 7.7150
v  -4.9969 1.2110 7.6986
v  -5.0606 1.5604 8.5104
v  -5.0616 1.2110 8.5235
v  -5.2185 1.5604 9.3370
v  -5.2189 1.2110 9.3420
v  -5.6787 1.5604 10.0332
v  -5.6789 1.2110 10.0365
v  -5.8030 1.5604 10.7192
v  -5.8030 1.2110 10.7192
v  -5.6556 1.5604 11.3902
v  -5.6556 1.2110 11.3902
v  -3.4447 1.2110 5.3073
v  4.9419 1.9280 5.3073
# 714 vertices

vn -1.0000 -0.0000 -0.0000
vn 0.0000 -1.0000 -0.0000
vn 1.0000 0.0000 -0.0000
vn 0.0000 1.0000 -0.0000
vn 1.0000 -0.0000 -0.0000
vn 0.0000 0.0000 1.0000
vn -0.3072 0.0000 0.9517
vn 0.0001 0.0002 1.0000
vn -0.3033 0.0002 0.9529
vn 0.0000 0.0000 -1.0000
vn -1.0000 0.0000 -0.0000
vn 0.0000 0.0985 0.9951
vn 0.0000 0.4719 0.8817
vn 0.0000 0.8817 0.4719
vn 0.0000 0.9951 0.0985
vn 0.0000 0.9978 0.0668
vn 0.0015 0.6919 0.7220
vn 0.0000 0.8311 0.5562
vn 0.0000 0.9593 0.2824
vn 0.3071 0.0002 0.9517
vn 0.4277 0.0000 0.9039
vn 0.3032 0.0000 0.9529
vn -0.4277 0.0000 0.9039
vn -0.3399 0.0000 0.9405
vn -0.3422 0.0000 0.9396
vn -0.0000 0.0000 1.0000
vn 0.3399 0.0000 0.9405
vn 0.5244 0.0000 0.8515
vn 0.3422 0.0000 0.9396
vn -0.5244 0.0000 0.8515
vn 0.0072 1.0000 0.0026
vn -0.0010 1.0000 0.0067
vn 0.0242 -0.9989 0.0393
vn -0.0000 -0.9997 -0.0243
vn 0.0101 -0.9999 -0.0030
vn -0.0087 0.9992 0.0400
vn -0.0015 1.0000 0.0070
vn 0.0087 0.9992 0.0400
vn 0.0015 1.0000 0.0070
vn -0.0071 0.6403 0.7681
vn -0.0000 0.6421 0.7666
vn -0.0015 0.6919 0.7220
vn 0.0071 0.6403 0.7681
vn -0.0111 0.9986 0.0510
vn 0.0111 0.9986 0.0510
vn 0.0000 1.0000 0.0067
vn 0.0000 0.9919 0.1268
vn 0.0242 0.9989 -0.0393
vn -0.0074 0.9984 0.0556
vn -0.0242 -0.9989 0.0393
vn -0.0101 -0.9999 -0.0030
vn -1.0000 0.0000 0.0000
vn -0.7071 0.0000 0.7071
vn 0.7071 0.0000 0.7071
vn 1.0000 0.0000 0.0000
vn 0.7071 0.0000 -0.7071
vn -0.7071 0.0000 -0.7071
vn -0.4420 -0.7805 -0.4420
vn -0.0000 -0.7805 -0.6251
vn 0.4420 -0.7805 -0.4420
vn 0.6251 -0.7805 0.0000
vn 0.4420 -0.7805 0.4420
vn -0.0000 -0.7805 0.6251
vn -0.4420 -0.7805 0.4420
vn -0.6251 -0.7805 0.0000
vn 0.0000 0.9994 0.0357
vn -0.6823 0.0000 0.7310
vn 0.0000 0.6823 0.7310
vn 0.6823 0.0000 0.7310
vn 0.0000 -0.6823 0.7310
vn 0.0000 0.6890 0.7247
vn 0.0000 0.7349 0.6782
vn 0.0000 0.6907 0.7232
vn 0.0000 0.8313 0.5558
vn 0.0000 0.9592 0.2828
vn 0.0000 0.9909 0.1350
vn -0.0000 0.0055 1.0000
vn 0.0000 -0.0000 1.0000
vn -0.0002 1.0000 0.0008
vn -0.0001 1.0000 0.0008
vn 0.0005 1.0000 0.0002
vn -0.0000 1.0000 -0.0000
vn 0.0013 1.0000 0.0006
vn -0.0000 0.0001 1.0000
vn -0.0001 0.0165 0.9999
vn 1.0000 0.0010 0.0010
vn 1.0000 0.0003 0.0001
vn -0.0000 -0.0000 1.0000
vn -1.0000 0.0044 -0.0011
vn -1.0000 -0.0001 -0.0004
vn -1.0000 0.0007 -0.0004
vn -1.0000 0.0001 -0.0019
vn -1.0000 -0.0005 -0.0010
vn -0.9999 0.0150 -0.0015
vn 1.0000 0.0015 0.0018
vn 1.0000 0.0000 0.0040
vn -0.0000 1.0000 0.0000
vn 0.0000 1.0000 0.0000
vn 0.0000 0.9991 -0.0419
vn 0.0000 0.7259 0.6878
vn -1.0000 -0.0000 0.0000
vn 0.3072 0.0000 0.9517
vn 0.3033 0.0002 0.9529
vn -0.0001 0.0002 1.0000
vn -0.3071 0.0002 0.9517
vn -0.3032 0.0000 0.9529
vn 0.0010 1.0000 0.0067
vn -0.0072 1.0000 0.0026
vn 0.0000 0.6421 0.7666
vn 0.0074 0.9984 0.0556
vn -0.0242 0.9989 -0.0393
vn -0.0000 0.0000 -1.0000
vn 0.0000 -0.7805 -0.6251
vn -0.6251 -0.7805 -0.0000
vn 0.0000 -0.7805 0.6251
vn -0.0000 1.0000 0.0009
vn 0.0018 1.0000 0.0009
vn -0.0000 -0.4203 0.9074
vn -0.0002 -0.7358 0.6772
vn -0.0000 0.1537 0.9881
vn 0.0000 0.1537 0.9881
vn 0.0000 0.5202 0.8541
vn 0.0000 -0.1537 -0.9881
vn 0.0000 -0.5202 -0.8541
vn 0.0000 0.4203 -0.9074
vn 0.0000 0.7405 -0.6721
vn -0.0002 0.7359 -0.6771
vn -0.0000 0.8073 -0.5901
vn -0.0004 0.7992 -0.6011
vn 0.0000 -0.6018 -0.7986
vn -0.0000 -0.7909 0.6119
vn 0.0000 -0.7311 0.6823
vn 0.0000 0.6018 0.7986
vn 0.0000 -0.8375 0.5464
vn -0.0000 0.6018 0.7986
vn 0.0000 0.2133 0.9770
vn 0.0000 -0.2133 -0.9770
vn 0.0000 0.9770 -0.2133
vn 0.6177 0.7683 -0.1677
vn 0.0000 -0.9770 0.2133
vn -0.6177 0.7683 -0.1677
vn -0.0004 -0.7993 0.6009
vn -0.9958 0.0000 0.0916
vn -0.9969 0.0000 -0.0782
vn -0.8660 0.0000 0.5000
vn -0.5000 0.0000 0.8660
vn 0.5000 0.0000 0.8660
vn 0.8660 0.0000 0.5000
vn 0.9958 0.0000 0.0916
vn 0.9969 0.0000 -0.0782
vn 0.9969 -0.0000 -0.0782
vn 0.0000 0.9789 0.2046
vn 0.0000 0.9744 0.2250
vn -0.9969 -0.0000 -0.0782
vn 0.4464 0.0000 0.8948
vn 0.0283 0.0000 0.9996
vn -0.4767 0.0000 0.8790
vn -0.8530 0.0000 0.5219
vn -0.9789 0.0000 0.2042
vn -0.9789 0.0003 0.2044
vn -0.9991 0.0009 0.0434
vn -0.9990 0.0012 0.0442
vn -0.9999 0.0008 -0.0166
vn -0.9999 0.0010 -0.0164
vn -0.9986 0.0008 -0.0534
vn -0.9988 0.0011 -0.0486
vn -0.9992 0.0000 -0.0391
vn 0.9992 0.0000 -0.0391
vn 0.9921 -0.0018 -0.1254
vn 0.9909 -0.0018 -0.1346
vn 0.9267 -0.0046 -0.3757
vn 0.9254 -0.0040 -0.3790
vn 0.9275 -0.0031 -0.3738
vn 0.9283 -0.0027 -0.3719
vn 0.9998 -0.0001 0.0183
vn 0.9998 0.0000 0.0182
vn 0.8454 0.0000 0.5342
vn 0.0000 0.9078 0.4195
vn -0.4464 0.0000 0.8948
vn -0.0283 0.0000 0.9996
vn 0.4767 0.0000 0.8790
vn 0.8530 0.0000 0.5219
vn 0.9789 0.0000 0.2042
vn 0.9789 0.0003 0.2044
vn 0.9991 0.0009 0.0434
vn 0.9990 0.0012 0.0442
vn 0.9999 0.0008 -0.0166
vn 0.9999 0.0010 -0.0164
vn 0.9986 0.0008 -0.0534
vn 0.9988 0.0011 -0.0486
vn -0.9992 -0.0000 -0.0391
vn -0.9921 -0.0018 -0.1254
vn -0.9909 -0.0018 -0.1346
vn -0.9267 -0.0046 -0.3757
vn -0.9254 -0.0040 -0.3790
vn -0.9275 -0.0031 -0.3738
vn -0.9283 -0.0027 -0.3719
vn -0.9998 -0.0001 0.0183
vn -0.9998 0.0000 0.0182
vn -0.8454 0.0000 0.5342
vn -0.0000 0.9078 0.4195
# 201 vertex normals

vt 0.2052 0.6393 0.0000
vt 0.2957 0.6393 0.0000
vt 0.2323 0.6574 0.0000
vt 0.3213 0.7854 0.0000
vt 0.3213 0.6949 0.0000
vt 0.3394 0.7854 0.0000
vt 0.3009 0.6393 0.0000
vt 0.3914 0.6393 0.0000
vt 0.3190 0.6574 0.0000
vt 0.3430 0.7869 0.0000
vt 0.3430 0.7416 0.0000
vt 0.3611 0.7869 0.0000
vt 0.3642 0.6574 0.0000
vt 0.3914 0.8565 0.0000
vt 0.3642 0.7901 0.0000
vt 0.2323 0.7901 0.0000
vt 0.2052 0.8565 0.0000
vt 0.2327 0.8890 0.0000
vt 0.3654 0.8709 0.0000
vt 0.3654 0.8890 0.0000
vt 0.2327 0.9090 0.0000
vt 0.2327 0.9035 0.0000
vt 0.3874 0.9090 0.0000
vt 0.3190 0.7901 0.0000
vt 0.3009 0.7901 0.0000
vt 0.2326 0.8661 0.0000
vt 0.3653 0.8480 0.0000
vt 0.3653 0.8661 0.0000
vt 0.2776 0.6574 0.0000
vt 0.2957 0.7901 0.0000
vt 0.2776 0.7901 0.0000
vt 0.3429 0.6936 0.0000
vt 0.3610 0.7388 0.0000
vt 0.3429 0.7388 0.0000
vt 0.2341 0.6596 0.0000
vt 0.2522 0.6953 0.0000
vt 0.2341 0.6958 0.0000
vt 0.2522 0.7021 0.0000
vt 0.2341 0.7027 0.0000
vt 0.2522 0.7078 0.0000
vt 0.2341 0.7084 0.0000
vt 0.2522 0.7147 0.0000
vt 0.2341 0.7152 0.0000
vt 0.2341 0.7544 0.0000
vt 0.2522 0.7539 0.0000
vt 0.2342 0.7770 0.0000
vt 0.2342 0.7693 0.0000
vt 0.2522 0.7688 0.0000
vt 0.2342 0.7620 0.0000
vt 0.2522 0.7615 0.0000
vt 0.2142 0.8565 0.0000
vt 0.2142 0.9289 0.0000
vt 0.2327 0.8979 0.0000
vt 0.2327 0.8942 0.0000
vt 0.3874 0.8979 0.0000
vt 0.3874 0.9035 0.0000
vt 0.3874 0.9128 0.0000
vt 0.3249 0.7871 0.0000
vt 0.2564 0.7048 0.0000
vt 0.2600 0.7031 0.0000
vt 0.2745 0.7048 0.0000
vt 0.2142 0.9831 0.0000
vt 0.2142 0.9892 0.0000
vt 0.2052 0.9892 0.0000
vt 0.2597 0.7158 0.0000
vt 0.2652 0.7157 0.0000
vt 0.2597 0.7882 0.0000
vt 0.2601 0.7075 0.0000
vt 0.2656 0.7074 0.0000
vt 0.2601 0.7135 0.0000
vt 0.2707 0.7158 0.0000
vt 0.2749 0.7158 0.0000
vt 0.2707 0.7882 0.0000
vt 0.2652 0.7881 0.0000
vt 0.2555 0.7882 0.0000
vt 0.2710 0.7075 0.0000
vt 0.2753 0.7075 0.0000
vt 0.2710 0.7135 0.0000
vt 0.2656 0.7134 0.0000
vt 0.2558 0.7135 0.0000
vt 0.2872 0.9340 0.0000
vt 0.2329 0.9340 0.0000
vt 0.2872 0.9159 0.0000
vt 0.2745 0.6936 0.0000
vt 0.2564 0.6936 0.0000
vt 0.2745 0.6845 0.0000
vt 0.2747 0.6792 0.0000
vt 0.2566 0.6792 0.0000
vt 0.2710 0.6769 0.0000
vt 0.2709 0.6991 0.0000
vt 0.2654 0.6999 0.0000
vt 0.2745 0.6969 0.0000
vt 0.3823 0.8565 0.0000
vt 0.3793 0.8565 0.0000
vt 0.3719 0.8476 0.0000
vt 0.2246 0.8476 0.0000
vt 0.2172 0.8565 0.0000
vt 0.2747 0.6739 0.0000
vt 0.2711 0.6717 0.0000
vt 0.2747 0.6709 0.0000
vt 0.2602 0.6717 0.0000
vt 0.2566 0.6739 0.0000
vt 0.2566 0.6709 0.0000
vt 0.2523 0.7879 0.0000
vt 0.2432 0.7881 0.0000
vt 0.2523 0.7764 0.0000
vt 0.2342 0.7885 0.0000
vt 0.2657 0.6709 0.0000
vt 0.3129 0.8384 0.0000
vt 0.3062 0.8370 0.0000
vt 0.2957 0.8263 0.0000
vt 0.2836 0.8384 0.0000
vt 0.3521 0.8384 0.0000
vt 0.2444 0.8384 0.0000
vt 0.3009 0.8263 0.0000
vt 0.3394 0.6949 0.0000
vt 0.3611 0.7416 0.0000
vt 0.2327 0.8709 0.0000
vt 0.2326 0.8480 0.0000
vt 0.3610 0.6936 0.0000
vt 0.2522 0.6591 0.0000
vt 0.3874 0.8942 0.0000
vt 0.2327 0.9128 0.0000
vt 0.3358 0.7871 0.0000
vt 0.3303 0.7881 0.0000
vt 0.2654 0.7021 0.0000
vt 0.2709 0.7031 0.0000
vt 0.2749 0.7882 0.0000
vt 0.2555 0.7158 0.0000
vt 0.2753 0.7135 0.0000
vt 0.2558 0.7075 0.0000
vt 0.2329 0.9159 0.0000
vt 0.2564 0.6845 0.0000
vt 0.2600 0.6823 0.0000
vt 0.2654 0.6815 0.0000
vt 0.2709 0.6823 0.0000
vt 0.2602 0.6770 0.0000
vt 0.2656 0.6762 0.0000
vt 0.2600 0.6991 0.0000
vt 0.2564 0.6969 0.0000
vt 0.3597 0.8394 0.0000
vt 0.3663 0.8425 0.0000
vt 0.2369 0.8394 0.0000
vt 0.2302 0.8425 0.0000
vt 0.3022 0.8330 0.0000
vt 0.2943 0.8330 0.0000
vt 0.2903 0.8370 0.0000
vt 0.6946 0.7069 0.0000
vt 0.7001 0.7046 0.0000
vt 0.6923 0.7124 0.0000
vt 0.6268 0.7273 0.0000
vt 0.6209 0.7237 0.0000
vt 0.6268 0.7237 0.0000
vt 0.6209 0.7273 0.0000
vt 0.6149 0.7237 0.0000
vt 0.6625 0.7273 0.0000
vt 0.6565 0.7237 0.0000
vt 0.6625 0.7237 0.0000
vt 0.6565 0.7273 0.0000
vt 0.6506 0.7237 0.0000
vt 0.6506 0.7273 0.0000
vt 0.6446 0.7237 0.0000
vt 0.6446 0.7273 0.0000
vt 0.6387 0.7237 0.0000
vt 0.6387 0.7273 0.0000
vt 0.6328 0.7237 0.0000
vt 0.6328 0.7273 0.0000
vt 0.6426 0.7046 0.0000
vt 0.6519 0.7149 0.0000
vt 0.6426 0.7149 0.0000
vt 0.6519 0.7046 0.0000
vt 0.6613 0.7149 0.0000
vt 0.6613 0.7046 0.0000
vt 0.6706 0.7149 0.0000
vt 0.6706 0.7046 0.0000
vt 0.6800 0.7149 0.0000
vt 0.6800 0.7046 0.0000
vt 0.6893 0.7149 0.0000
vt 0.6146 0.7046 0.0000
vt 0.6239 0.7149 0.0000
vt 0.6146 0.7149 0.0000
vt 0.6239 0.7046 0.0000
vt 0.6333 0.7149 0.0000
vt 0.6333 0.7046 0.0000
vt 0.6362 0.7168 0.0000
vt 0.6436 0.7223 0.0000
vt 0.6362 0.7223 0.0000
vt 0.6436 0.7168 0.0000
vt 0.6510 0.7223 0.0000
vt 0.6510 0.7168 0.0000
vt 0.6584 0.7223 0.0000
vt 0.6584 0.7168 0.0000
vt 0.6658 0.7223 0.0000
vt 0.6658 0.7168 0.0000
vt 0.6748 0.7223 0.0000
vt 0.6146 0.7168 0.0000
vt 0.6214 0.7223 0.0000
vt 0.6146 0.7223 0.0000
vt 0.6214 0.7168 0.0000
vt 0.6288 0.7223 0.0000
vt 0.6288 0.7168 0.0000
vt 0.4425 0.1848 0.0000
vt 0.8587 0.1107 0.0000
vt 0.8587 0.1848 0.0000
vt 0.4400 0.5690 0.0000
vt 0.4570 0.5690 0.0000
vt 0.4400 0.5709 0.0000
vt 0.5054 0.5884 0.0000
vt 0.5054 0.5857 0.0000
vt 0.6007 0.5884 0.0000
vt 0.6819 0.6304 0.0000
vt 0.6819 0.6277 0.0000
vt 0.7772 0.6304 0.0000
vt 0.4400 0.5432 0.0000
vt 0.4400 0.5405 0.0000
vt 0.8716 0.5432 0.0000
vt 0.4467 0.6276 0.0000
vt 0.5050 0.6308 0.0000
vt 0.4455 0.6308 0.0000
vt 0.8696 0.5621 0.0000
vt 0.4400 0.5600 0.0000
vt 0.8716 0.5600 0.0000
vt 0.5669 0.6310 0.0000
vt 0.5086 0.6278 0.0000
vt 0.5682 0.6278 0.0000
vt 0.4420 0.5644 0.0000
vt 0.8716 0.5665 0.0000
vt 0.4400 0.5665 0.0000
vt 0.8781 0.2449 0.0000
vt 0.8781 0.2482 0.0000
vt 0.4425 0.2449 0.0000
vt 0.5739 0.6309 0.0000
vt 0.5739 0.6277 0.0000
vt 0.6731 0.6309 0.0000
vt 0.8756 0.5335 0.0000
vt 0.8756 0.5367 0.0000
vt 0.4400 0.5335 0.0000
vt 0.8724 0.6143 0.0000
vt 0.8724 0.6175 0.0000
vt 0.7731 0.6143 0.0000
vt 0.4425 0.2554 0.0000
vt 0.4425 0.2528 0.0000
vt 0.8741 0.2554 0.0000
vt 0.8781 0.0060 0.0000
vt 0.8781 0.1052 0.0000
vt 0.4425 0.0060 0.0000
vt 0.5014 0.5888 0.0000
vt 0.4406 0.5856 0.0000
vt 0.5026 0.5856 0.0000
vt 0.4445 0.2677 0.0000
vt 0.8781 0.2697 0.0000
vt 0.4425 0.2697 0.0000
vt 0.7068 0.6152 0.0000
vt 0.7676 0.6184 0.0000
vt 0.7055 0.6184 0.0000
vt 0.8736 0.5572 0.0000
vt 0.4400 0.5552 0.0000
vt 0.8756 0.5552 0.0000
vt 0.8338 0.5949 0.0000
vt 0.4403 0.5921 0.0000
vt 0.8337 0.5921 0.0000
vt 0.3838 0.6311 0.0000
vt 0.0075 0.5228 0.0000
vt 0.3838 0.5228 0.0000
vt 0.4485 0.6153 0.0000
vt 0.5308 0.6233 0.0000
vt 0.4453 0.6233 0.0000
vt 0.8868 0.4918 0.0000
vt 0.4417 0.4868 0.0000
vt 0.8918 0.4868 0.0000
vt 0.6232 0.6062 0.0000
vt 0.5409 0.5982 0.0000
vt 0.6263 0.5982 0.0000
vt 0.6292 0.5982 0.0000
vt 0.7050 0.6050 0.0000
vt 0.6319 0.6050 0.0000
vt 0.4425 0.2597 0.0000
vt 0.8316 0.2640 0.0000
vt 0.4468 0.2640 0.0000
vt 0.6984 0.6199 0.0000
vt 0.6226 0.6130 0.0000
vt 0.6957 0.6130 0.0000
vt 0.8358 0.4073 0.0000
vt 0.4468 0.4030 0.0000
vt 0.8316 0.4030 0.0000
vt 0.8850 0.5132 0.0000
vt 0.8900 0.5182 0.0000
vt 0.4450 0.5132 0.0000
vt 0.4425 0.3922 0.0000
vt 0.8358 0.3986 0.0000
vt 0.4425 0.3986 0.0000
vt 0.4425 0.3858 0.0000
vt 0.8358 0.3858 0.0000
vt 0.8358 0.3922 0.0000
vt 0.4425 0.3783 0.0000
vt 0.8358 0.3783 0.0000
vt 0.4425 0.3710 0.0000
vt 0.8358 0.3710 0.0000
vt 0.4425 0.3634 0.0000
vt 0.8358 0.3634 0.0000
vt 0.8360 0.5089 0.0000
vt 0.4426 0.5089 0.0000
vt 0.4618 0.4990 0.0000
vt 0.8169 0.4990 0.0000
vt 0.8360 0.4990 0.0000
vt 0.8398 0.4641 0.0000
vt 0.8206 0.4641 0.0000
vt 0.8206 0.4241 0.0000
vt 0.3924 0.5221 0.0000
vt 0.4116 0.5221 0.0000
vt 0.4116 0.5621 0.0000
vt 0.4116 0.5789 0.0000
vt 0.3924 0.5789 0.0000
vt 0.3924 0.5675 0.0000
vt 0.4618 0.4960 0.0000
vt 0.8168 0.4960 0.0000
vt 0.5312 0.6067 0.0000
vt 0.4912 0.6097 0.0000
vt 0.4912 0.5983 0.0000
vt 0.8175 0.5855 0.0000
vt 0.7983 0.5855 0.0000
vt 0.7983 0.5741 0.0000
vt 0.7949 0.5825 0.0000
vt 0.4400 0.5825 0.0000
vt 0.4400 0.5740 0.0000
vt 0.5312 0.6097 0.0000
vt 0.4463 0.6067 0.0000
vt 0.4863 0.5982 0.0000
vt 0.4863 0.6097 0.0000
vt 0.4426 0.4990 0.0000
vt 0.4406 0.6067 0.0000
vt 0.4406 0.5982 0.0000
vt 0.4400 0.5467 0.0000
vt 0.7950 0.5467 0.0000
vt 0.4400 0.5524 0.0000
vt 0.4463 0.6097 0.0000
vt 0.5369 0.5983 0.0000
vt 0.5369 0.6067 0.0000
vt 0.4596 0.3595 0.0000
vt 0.8701 0.2740 0.0000
vt 0.8529 0.3595 0.0000
vt 0.4419 0.4115 0.0000
vt 0.8353 0.4115 0.0000
vt 0.4611 0.4200 0.0000
vt 0.4425 0.1903 0.0000
vt 0.8358 0.2131 0.0000
vt 0.4425 0.2131 0.0000
vt 0.8353 0.4200 0.0000
vt 0.8161 0.4200 0.0000
vt 0.8161 0.4657 0.0000
vt 0.4419 0.4200 0.0000
vt 0.5048 0.7098 0.0000
vt 0.4651 0.7160 0.0000
vt 0.4651 0.7099 0.0000
vt 0.5109 0.7098 0.0000
vt 0.5059 0.7159 0.0000
vt 0.5058 0.7098 0.0000
vt 0.5086 0.7202 0.0000
vt 0.4650 0.7166 0.0000
vt 0.5050 0.7165 0.0000
vt 0.4649 0.7074 0.0000
vt 0.5050 0.7091 0.0000
vt 0.4649 0.7092 0.0000
vt 0.6041 0.7095 0.0000
vt 0.5644 0.7157 0.0000
vt 0.5644 0.7096 0.0000
vt 0.6102 0.7095 0.0000
vt 0.6052 0.7156 0.0000
vt 0.6051 0.7095 0.0000
vt 0.6079 0.7199 0.0000
vt 0.5643 0.7163 0.0000
vt 0.6043 0.7162 0.0000
vt 0.5642 0.7071 0.0000
vt 0.6043 0.7088 0.0000
vt 0.5642 0.7089 0.0000
vt 0.5546 0.7096 0.0000
vt 0.5149 0.7157 0.0000
vt 0.5149 0.7096 0.0000
vt 0.5607 0.7095 0.0000
vt 0.5557 0.7156 0.0000
vt 0.5556 0.7096 0.0000
vt 0.5584 0.7199 0.0000
vt 0.5148 0.7163 0.0000
vt 0.5548 0.7163 0.0000
vt 0.5147 0.7071 0.0000
vt 0.5548 0.7089 0.0000
vt 0.5147 0.7090 0.0000
vt 0.4099 0.6399 0.0000
vt 0.8519 0.6898 0.0000
vt 0.4099 0.6898 0.0000
vt 0.4099 0.6931 0.0000
vt 0.8519 0.7024 0.0000
vt 0.4099 0.7024 0.0000
vt 0.4099 0.7056 0.0000
vt 0.4598 0.7149 0.0000
vt 0.4099 0.7149 0.0000
vt 0.4099 0.7182 0.0000
vt 0.4598 0.7275 0.0000
vt 0.4099 0.7275 0.0000
vt 0.0096 0.9811 0.0000
vt 0.0951 0.6390 0.0000
vt 0.0951 0.9830 0.0000
vt 0.0075 0.3499 0.0000
vt 0.0075 0.0060 0.0000
vt 0.4351 0.3499 0.0000
vt 0.1073 0.9830 0.0000
vt 0.1073 0.6390 0.0000
vt 0.1928 0.9811 0.0000
vt 0.0096 0.9830 0.0000
vt 0.1928 0.9830 0.0000
vt 0.1985 0.9830 0.0000
vt 0.0039 0.9811 0.0000
vt 0.4351 0.5130 0.0000
vt 0.0075 0.5130 0.0000
vt 0.4351 0.3591 0.0000
vt 0.0096 0.7930 0.0000
vt 0.0096 0.6390 0.0000
vt 0.1928 0.6390 0.0000
vt 0.1928 0.7930 0.0000
vt 0.8415 0.6082 0.0000
vt 0.7916 0.5990 0.0000
vt 0.8380 0.5990 0.0000
vt 0.8675 0.5285 0.0000
vt 0.4457 0.5228 0.0000
vt 0.8618 0.5228 0.0000
vt 0.8219 0.5744 0.0000
vt 0.8718 0.5835 0.0000
vt 0.8255 0.5835 0.0000
vt 0.4425 0.2342 0.0000
vt 0.8644 0.2400 0.0000
vt 0.4482 0.2400 0.0000
vt 0.7106 0.5978 0.0000
vt 0.7847 0.6092 0.0000
vt 0.7106 0.6092 0.0000
vt 0.4419 0.4703 0.0000
vt 0.8581 0.4817 0.0000
vt 0.4419 0.4817 0.0000
vt 0.5379 0.6121 0.0000
vt 0.6120 0.6235 0.0000
vt 0.5379 0.6235 0.0000
vt 0.4425 0.2182 0.0000
vt 0.8586 0.2296 0.0000
vt 0.4425 0.2296 0.0000
vt 0.8675 0.5709 0.0000
vt 0.8505 0.5690 0.0000
vt 0.8675 0.5690 0.0000
vt 0.8954 0.0114 0.0000
vt 0.9226 0.0295 0.0000
vt 0.9859 0.0114 0.0000
vt 0.9198 0.5825 0.0000
vt 0.9379 0.5825 0.0000
vt 0.9198 0.4921 0.0000
vt 0.8994 0.4364 0.0000
vt 0.9174 0.4545 0.0000
vt 0.9898 0.4364 0.0000
vt 0.9415 0.5840 0.0000
vt 0.9596 0.5840 0.0000
vt 0.9415 0.5388 0.0000
vt 0.9627 0.4545 0.0000
vt 0.9627 0.5873 0.0000
vt 0.9898 0.6536 0.0000
vt 0.8954 0.2286 0.0000
vt 0.9226 0.1623 0.0000
vt 0.9436 0.2253 0.0000
vt 0.9436 0.3580 0.0000
vt 0.9617 0.3580 0.0000
vt 0.9235 0.2253 0.0000
vt 0.9235 0.3800 0.0000
vt 0.9291 0.2253 0.0000
vt 0.8994 0.5873 0.0000
vt 0.9174 0.5873 0.0000
vt 0.9665 0.2251 0.0000
vt 0.9665 0.3578 0.0000
vt 0.9846 0.3578 0.0000
vt 0.9678 0.0295 0.0000
vt 0.9678 0.1623 0.0000
vt 0.9859 0.1623 0.0000
vt 0.9414 0.4907 0.0000
vt 0.9414 0.5360 0.0000
vt 0.9595 0.5360 0.0000
vt 0.9243 0.0318 0.0000
vt 0.9243 0.0680 0.0000
vt 0.9424 0.0675 0.0000
vt 0.9243 0.0748 0.0000
vt 0.9424 0.0743 0.0000
vt 0.9243 0.0805 0.0000
vt 0.9424 0.0800 0.0000
vt 0.9243 0.0874 0.0000
vt 0.9424 0.0868 0.0000
vt 0.9244 0.1266 0.0000
vt 0.9425 0.1261 0.0000
vt 0.9244 0.1491 0.0000
vt 0.9425 0.1410 0.0000
vt 0.9244 0.1415 0.0000
vt 0.9425 0.1337 0.0000
vt 0.9244 0.1342 0.0000
vt 0.9045 0.3010 0.0000
vt 0.9045 0.2286 0.0000
vt 0.9347 0.2253 0.0000
vt 0.9347 0.3800 0.0000
vt 0.9384 0.2253 0.0000
vt 0.9291 0.3800 0.0000
vt 0.9198 0.3800 0.0000
vt 0.9234 0.5843 0.0000
vt 0.9466 0.0770 0.0000
vt 0.9647 0.0770 0.0000
vt 0.9502 0.0752 0.0000
vt 0.9045 0.3553 0.0000
vt 0.8954 0.3613 0.0000
vt 0.9045 0.3613 0.0000
vt 0.9499 0.0880 0.0000
vt 0.9499 0.1604 0.0000
vt 0.9554 0.0879 0.0000
vt 0.9503 0.0796 0.0000
vt 0.9503 0.0857 0.0000
vt 0.9558 0.0795 0.0000
vt 0.9609 0.0880 0.0000
vt 0.9609 0.1604 0.0000
vt 0.9652 0.0880 0.0000
vt 0.9554 0.1603 0.0000
vt 0.9457 0.1604 0.0000
vt 0.9613 0.0796 0.0000
vt 0.9613 0.0857 0.0000
vt 0.9655 0.0796 0.0000
vt 0.9558 0.0856 0.0000
vt 0.9461 0.0857 0.0000
vt 0.9650 0.4161 0.0000
vt 0.9831 0.4161 0.0000
vt 0.9650 0.3618 0.0000
vt 0.9647 0.0658 0.0000
vt 0.9647 0.0567 0.0000
vt 0.9466 0.0658 0.0000
vt 0.9649 0.0513 0.0000
vt 0.9613 0.0491 0.0000
vt 0.9468 0.0514 0.0000
vt 0.9611 0.0713 0.0000
vt 0.9647 0.0691 0.0000
vt 0.9557 0.0721 0.0000
vt 0.9808 0.6536 0.0000
vt 0.9704 0.6448 0.0000
vt 0.9778 0.6536 0.0000
vt 0.9148 0.2198 0.0000
vt 0.9075 0.2286 0.0000
vt 0.9649 0.0461 0.0000
vt 0.9649 0.0431 0.0000
vt 0.9613 0.0439 0.0000
vt 0.9505 0.0439 0.0000
vt 0.9468 0.0431 0.0000
vt 0.9468 0.0461 0.0000
vt 0.9425 0.1601 0.0000
vt 0.9425 0.1486 0.0000
vt 0.9334 0.1603 0.0000
vt 0.9244 0.1606 0.0000
vt 0.9559 0.0431 0.0000
vt 0.9114 0.6355 0.0000
vt 0.9047 0.6342 0.0000
vt 0.9738 0.2105 0.0000
vt 0.9859 0.1985 0.0000
vt 0.9506 0.6355 0.0000
vt 0.9346 0.2105 0.0000
vt 0.8994 0.6235 0.0000
vt 0.9379 0.4921 0.0000
vt 0.9596 0.5388 0.0000
vt 0.9617 0.2253 0.0000
vt 0.9846 0.2251 0.0000
vt 0.9595 0.4907 0.0000
vt 0.9424 0.0313 0.0000
vt 0.9384 0.3800 0.0000
vt 0.9198 0.2253 0.0000
vt 0.9288 0.5853 0.0000
vt 0.9342 0.5843 0.0000
vt 0.9557 0.0743 0.0000
vt 0.9611 0.0752 0.0000
vt 0.9652 0.1604 0.0000
vt 0.9457 0.0880 0.0000
vt 0.9655 0.0857 0.0000
vt 0.9461 0.0796 0.0000
vt 0.9831 0.3618 0.0000
vt 0.9502 0.0545 0.0000
vt 0.9466 0.0567 0.0000
vt 0.9611 0.0545 0.0000
vt 0.9557 0.0537 0.0000
vt 0.9558 0.0483 0.0000
vt 0.9504 0.0491 0.0000
vt 0.9466 0.0691 0.0000
vt 0.9502 0.0713 0.0000
vt 0.9582 0.6365 0.0000
vt 0.9648 0.6396 0.0000
vt 0.9271 0.2115 0.0000
vt 0.9205 0.2146 0.0000
vt 0.9007 0.6302 0.0000
vt 0.9846 0.2052 0.0000
vt 0.9805 0.2092 0.0000
vt 0.7924 0.7069 0.0000
vt 0.7902 0.7124 0.0000
vt 0.7979 0.7046 0.0000
vt 0.7246 0.7273 0.0000
vt 0.7187 0.7237 0.0000
vt 0.7187 0.7273 0.0000
vt 0.7128 0.7237 0.0000
vt 0.7128 0.7273 0.0000
vt 0.7603 0.7273 0.0000
vt 0.7544 0.7237 0.0000
vt 0.7544 0.7273 0.0000
vt 0.7484 0.7237 0.0000
vt 0.7484 0.7273 0.0000
vt 0.7425 0.7237 0.0000
vt 0.7425 0.7273 0.0000
vt 0.7365 0.7237 0.0000
vt 0.7365 0.7273 0.0000
vt 0.7306 0.7237 0.0000
vt 0.7306 0.7273 0.0000
vt 0.7246 0.7237 0.0000
vt 0.7404 0.7046 0.0000
vt 0.7498 0.7149 0.0000
vt 0.7498 0.7046 0.0000
vt 0.7591 0.7149 0.0000
vt 0.7591 0.7046 0.0000
vt 0.7684 0.7149 0.0000
vt 0.7684 0.7046 0.0000
vt 0.7778 0.7149 0.0000
vt 0.7778 0.7046 0.0000
vt 0.7871 0.7149 0.0000
vt 0.7871 0.7046 0.0000
vt 0.7124 0.7046 0.0000
vt 0.7217 0.7149 0.0000
vt 0.7217 0.7046 0.0000
vt 0.7311 0.7149 0.0000
vt 0.7311 0.7046 0.0000
vt 0.7404 0.7149 0.0000
vt 0.7340 0.7168 0.0000
vt 0.7414 0.7223 0.0000
vt 0.7414 0.7168 0.0000
vt 0.7488 0.7223 0.0000
vt 0.7488 0.7168 0.0000
vt 0.7562 0.7223 0.0000
vt 0.7562 0.7168 0.0000
vt 0.7636 0.7223 0.0000
vt 0.7636 0.7168 0.0000
vt 0.7727 0.7223 0.0000
vt 0.7727 0.7168 0.0000
vt 0.7124 0.7168 0.0000
vt 0.7193 0.7223 0.0000
vt 0.7193 0.7168 0.0000
vt 0.7267 0.7223 0.0000
vt 0.7267 0.7168 0.0000
vt 0.7340 0.7223 0.0000
vt 0.7056 0.7069 0.0000
vt 0.7079 0.7124 0.0000
vt 0.7056 0.7179 0.0000
vt 0.7001 0.7201 0.0000
vt 0.6946 0.7179 0.0000
vt 0.6149 0.7273 0.0000
vt 0.6893 0.7046 0.0000
vt 0.6748 0.7168 0.0000
vt 0.4425 0.1107 0.0000
vt 0.6007 0.5857 0.0000
vt 0.7772 0.6277 0.0000
vt 0.8716 0.5405 0.0000
vt 0.5037 0.6276 0.0000
vt 0.4420 0.5621 0.0000
vt 0.5099 0.6310 0.0000
vt 0.8696 0.5644 0.0000
vt 0.4425 0.2482 0.0000
vt 0.6731 0.6277 0.0000
vt 0.4400 0.5367 0.0000
vt 0.7731 0.6175 0.0000
vt 0.8741 0.2528 0.0000
vt 0.4425 0.1052 0.0000
vt 0.4418 0.5888 0.0000
vt 0.8761 0.2677 0.0000
vt 0.7663 0.6152 0.0000
vt 0.4420 0.5572 0.0000
vt 0.4403 0.5949 0.0000
vt 0.0075 0.6311 0.0000
vt 0.5277 0.6153 0.0000
vt 0.4467 0.4918 0.0000
vt 0.5440 0.6062 0.0000
vt 0.7076 0.5982 0.0000
vt 0.8358 0.2597 0.0000
vt 0.6200 0.6199 0.0000
vt 0.4425 0.4073 0.0000
vt 0.4400 0.5182 0.0000
vt 0.8398 0.4241 0.0000
vt 0.3924 0.5621 0.0000
vt 0.4116 0.5675 0.0000
vt 0.8175 0.5741 0.0000
vt 0.7949 0.5740 0.0000
vt 0.7949 0.5524 0.0000
vt 0.4425 0.2740 0.0000
vt 0.8358 0.1903 0.0000
vt 0.4612 0.4657 0.0000
vt 0.5048 0.7159 0.0000
vt 0.5109 0.7159 0.0000
vt 0.4649 0.7184 0.0000
vt 0.5085 0.7055 0.0000
vt 0.6041 0.7156 0.0000
vt 0.6102 0.7156 0.0000
vt 0.5642 0.7181 0.0000
vt 0.6078 0.7051 0.0000
vt 0.5546 0.7156 0.0000
vt 0.5607 0.7156 0.0000
vt 0.5147 0.7182 0.0000
vt 0.5584 0.7052 0.0000
vt 0.8519 0.6399 0.0000
vt 0.8519 0.6931 0.0000
vt 0.4598 0.7056 0.0000
vt 0.4598 0.7182 0.0000
vt 0.4351 0.0060 0.0000
vt 0.1985 0.9811 0.0000
vt 0.0039 0.9830 0.0000
vt 0.0075 0.3591 0.0000
vt 0.7881 0.6082 0.0000
vt 0.4400 0.5285 0.0000
vt 0.8753 0.5744 0.0000
vt 0.8701 0.2342 0.0000
vt 0.7847 0.5978 0.0000
vt 0.8581 0.4703 0.0000
vt 0.6120 0.6121 0.0000
vt 0.8586 0.2182 0.0000
vt 0.7924 0.7179 0.0000
vt 0.7979 0.7201 0.0000
vt 0.8034 0.7179 0.0000
vt 0.8057 0.7124 0.0000
vt 0.8034 0.7069 0.0000
vt 0.7603 0.7237 0.0000
vt 0.7124 0.7149 0.0000
vt 0.7124 0.7223 0.0000
vt 0.8512 0.8297 0.0000
vt 0.4092 0.8297 0.0000
vt 0.4092 0.8227 0.0000
vt 0.8512 0.8355 0.0000
vt 0.4092 0.8354 0.0000
vt 0.8512 0.8424 0.0000
vt 0.4092 0.8424 0.0000
vt 0.4092 0.7612 0.0000
vt 0.8279 0.7613 0.0000
vt 0.8279 0.7675 0.0000
vt 0.4092 0.7555 0.0000
vt 0.8279 0.7555 0.0000
vt 0.4092 0.7492 0.0000
vt 0.8279 0.7493 0.0000
vt 0.4092 0.7372 0.0000
vt 0.8279 0.7373 0.0000
vt 0.4092 0.8069 0.0000
vt 0.4092 0.7675 0.0000
vt 0.8512 0.8118 0.0000
vt 0.8512 0.8228 0.0000
vt 0.8512 0.8756 0.0000
vt 0.4092 0.8755 0.0000
vt 0.4411 0.8994 0.0000
vt 0.4092 0.9010 0.0000
vt 0.4092 0.8994 0.0000
vt 0.8307 0.8804 0.0000
vt 0.4092 0.8820 0.0000
vt 0.4092 0.8804 0.0000
vt 0.4842 0.8932 0.0000
vt 0.4483 0.8946 0.0000
vt 0.4483 0.8932 0.0000
vt 0.4275 0.8946 0.0000
vt 0.4275 0.8932 0.0000
vt 0.4228 0.8946 0.0000
vt 0.4228 0.8932 0.0000
vt 0.4182 0.8946 0.0000
vt 0.4182 0.8932 0.0000
vt 0.4092 0.8946 0.0000
vt 0.4092 0.8932 0.0000
vt 0.8307 0.8868 0.0000
vt 0.4092 0.8882 0.0000
vt 0.4092 0.8870 0.0000
vt 0.4760 0.8994 0.0000
vt 0.4627 0.9010 0.0000
vt 0.4627 0.8994 0.0000
vt 0.4528 0.9010 0.0000
vt 0.4528 0.8994 0.0000
vt 0.4470 0.9010 0.0000
vt 0.4470 0.8994 0.0000
vt 0.4411 0.9010 0.0000
vt 0.8572 0.9301 0.0000
vt 0.4574 0.9632 0.0000
vt 0.4996 0.9301 0.0000
vt 0.4996 0.8934 0.0000
vt 0.8994 0.9266 0.0000
vt 0.4574 0.9266 0.0000
vt 0.4574 0.9725 0.0000
vt 0.8150 0.9747 0.0000
vt 0.4574 0.9747 0.0000
vt 0.4226 0.9338 0.0000
vt 0.4763 0.9358 0.0000
vt 0.4227 0.9360 0.0000
vt 0.4574 0.9668 0.0000
vt 0.8994 0.9690 0.0000
vt 0.4574 0.9690 0.0000
vt 0.4226 0.9395 0.0000
vt 0.4763 0.9417 0.0000
vt 0.4226 0.9417 0.0000
vt 0.8279 0.8069 0.0000
vt 0.4092 0.8119 0.0000
vt 0.8307 0.8820 0.0000
vt 0.4842 0.8946 0.0000
vt 0.8307 0.8884 0.0000
vt 0.4760 0.9010 0.0000
vt 0.8994 0.9632 0.0000
vt 0.8572 0.8934 0.0000
vt 0.8150 0.9725 0.0000
vt 0.4763 0.9336 0.0000
vt 0.8994 0.9668 0.0000
vt 0.4763 0.9395 0.0000
vt 0.9671 0.8782 0.0000
vt 0.9628 0.8782 0.0000
vt 0.9671 0.8501 0.0000
vt 0.9628 0.8848 0.0000
vt 0.9671 0.8848 0.0000
vt 0.9628 0.8914 0.0000
vt 0.9671 0.8914 0.0000
vt 0.9628 0.8980 0.0000
vt 0.9671 0.8980 0.0000
vt 0.9628 0.9047 0.0000
vt 0.9671 0.9047 0.0000
vt 0.9628 0.9113 0.0000
vt 0.9671 0.9113 0.0000
vt 0.9628 0.9179 0.0000
vt 0.9671 0.9647 0.0000
vt 0.9584 0.9647 0.0000
vt 0.9671 0.9561 0.0000
vt 0.8984 0.7445 0.0000
vt 0.8962 0.7727 0.0000
vt 0.8728 0.7446 0.0000
vt 0.9084 0.7548 0.0000
vt 0.9267 0.7548 0.0000
vt 0.9077 0.7634 0.0000
vt 0.9303 0.8014 0.0000
vt 0.9286 0.8078 0.0000
vt 0.9047 0.8014 0.0000
vt 0.8745 0.7382 0.0000
vt 0.8792 0.7335 0.0000
vt 0.8955 0.7834 0.0000
vt 0.8948 0.7922 0.0000
vt 0.8758 0.7834 0.0000
vt 0.8750 0.7727 0.0000
vt 0.9671 0.9860 0.0000
vt 0.9584 0.9860 0.0000
vt 0.9084 0.7335 0.0000
vt 0.9267 0.7335 0.0000
vt 0.9671 0.8314 0.0000
vt 0.9584 0.8101 0.0000
vt 0.9671 0.8101 0.0000
vt 0.8765 0.7922 0.0000
vt 0.8948 0.8135 0.0000
vt 0.8765 0.8135 0.0000
vt 0.9281 0.7734 0.0000
vt 0.9069 0.7734 0.0000
vt 0.9273 0.7634 0.0000
vt 0.9584 0.8402 0.0000
vt 0.9584 0.8314 0.0000
vt 0.9671 0.8400 0.0000
vt 0.9584 0.9559 0.0000
vt 0.9671 0.9460 0.0000
vt 0.9628 0.8499 0.0000
vt 0.9628 0.9462 0.0000
vt 0.9671 0.9179 0.0000
vt 0.9239 0.8125 0.0000
vt 0.9175 0.8142 0.0000
vt 0.9111 0.8125 0.0000
vt 0.9065 0.8078 0.0000
vt 0.8856 0.7318 0.0000
vt 0.8920 0.7335 0.0000
vt 0.8967 0.7381 0.0000
vt 0.9788 0.9072 0.0000
vt 0.9745 0.8995 0.0000
vt 0.9788 0.8995 0.0000
vt 0.9746 0.8921 0.0000
vt 0.9788 0.8921 0.0000
vt 0.9746 0.8850 0.0000
vt 0.9788 0.8850 0.0000
vt 0.9746 0.8780 0.0000
vt 0.9788 0.8780 0.0000
vt 0.9746 0.8698 0.0000
vt 0.9789 0.8699 0.0000
vt 0.9746 0.8602 0.0000
vt 0.9789 0.8603 0.0000
vt 0.9746 0.8492 0.0000
vt 0.9789 0.8494 0.0000
vt 0.9702 0.8395 0.0000
vt 0.9789 0.8393 0.0000
vt 0.9702 0.8307 0.0000
vt 0.9789 0.8307 0.0000
vt 0.9702 0.8101 0.0000
vt 0.9789 0.8101 0.0000
vt 0.9786 0.9914 0.0000
vt 0.9699 0.9708 0.0000
vt 0.9787 0.9708 0.0000
vt 0.9700 0.9620 0.0000
vt 0.9787 0.9622 0.0000
vt 0.9745 0.9523 0.0000
vt 0.9787 0.9521 0.0000
vt 0.9745 0.9420 0.0000
vt 0.9787 0.9420 0.0000
vt 0.9745 0.9318 0.0000
vt 0.9788 0.9318 0.0000
vt 0.9745 0.9233 0.0000
vt 0.9788 0.9233 0.0000
vt 0.9745 0.9150 0.0000
vt 0.9788 0.9150 0.0000
vt 0.9745 0.9072 0.0000
vt 0.8746 0.7084 0.0000
vt 0.8739 0.6996 0.0000
vt 0.8936 0.6996 0.0000
vt 0.8746 0.7290 0.0000
vt 0.8929 0.7084 0.0000
vt 0.9306 0.8464 0.0000
vt 0.9313 0.8550 0.0000
vt 0.9117 0.8550 0.0000
vt 0.9306 0.8258 0.0000
vt 0.9123 0.8464 0.0000
vt 0.8732 0.6889 0.0000
vt 0.8943 0.6889 0.0000
vt 0.9114 0.8937 0.0000
vt 0.9393 0.9001 0.0000
vt 0.9135 0.9003 0.0000
vt 0.9396 0.8835 0.0000
vt 0.9411 0.8919 0.0000
vt 0.9340 0.8751 0.0000
vt 0.9105 0.8855 0.0000
vt 0.9321 0.8651 0.0000
vt 0.9107 0.8760 0.0000
vt 0.9109 0.8651 0.0000
vt 0.9332 0.9048 0.0000
vt 0.9185 0.9053 0.0000
vt 0.8729 0.6779 0.0000
vt 0.8728 0.6684 0.0000
vt 0.8962 0.6788 0.0000
vt 0.8736 0.6602 0.0000
vt 0.9019 0.6703 0.0000
vt 0.9016 0.6538 0.0000
vt 0.9034 0.6620 0.0000
vt 0.8954 0.6490 0.0000
vt 0.8757 0.6535 0.0000
vt 0.9258 0.9068 0.0000
vt 0.8880 0.6470 0.0000
vt 0.8808 0.6485 0.0000
vt 0.9907 0.8943 0.0000
vt 0.9865 0.9020 0.0000
vt 0.9865 0.8943 0.0000
vt 0.9908 0.9020 0.0000
vt 0.9865 0.9094 0.0000
vt 0.9908 0.9094 0.0000
vt 0.9865 0.9165 0.0000
vt 0.9908 0.9165 0.0000
vt 0.9865 0.9235 0.0000
vt 0.9908 0.9235 0.0000
vt 0.9865 0.9317 0.0000
vt 0.9908 0.9317 0.0000
vt 0.9866 0.9413 0.0000
vt 0.9908 0.9412 0.0000
vt 0.9866 0.9523 0.0000
vt 0.9908 0.9521 0.0000
vt 0.9821 0.9620 0.0000
vt 0.9908 0.9622 0.0000
vt 0.9821 0.9708 0.0000
vt 0.9908 0.9708 0.0000
vt 0.9821 0.9914 0.0000
vt 0.9904 0.8101 0.0000
vt 0.9818 0.8307 0.0000
vt 0.9817 0.8101 0.0000
vt 0.9905 0.8307 0.0000
vt 0.9818 0.8395 0.0000
vt 0.9906 0.8393 0.0000
vt 0.9864 0.8492 0.0000
vt 0.9906 0.8494 0.0000
vt 0.9864 0.8595 0.0000
vt 0.9907 0.8595 0.0000
vt 0.9864 0.8697 0.0000
vt 0.9907 0.8697 0.0000
vt 0.9864 0.8782 0.0000
vt 0.9907 0.8782 0.0000
vt 0.9865 0.8866 0.0000
vt 0.9907 0.8866 0.0000
vt 0.9166 0.7084 0.0000
vt 0.9159 0.6996 0.0000
vt 0.9349 0.7084 0.0000
vt 0.9166 0.7290 0.0000
vt 0.9349 0.7290 0.0000
vt 0.9743 0.6837 0.0000
vt 0.9750 0.6923 0.0000
vt 0.9561 0.6837 0.0000
vt 0.9743 0.6631 0.0000
vt 0.9561 0.6631 0.0000
vt 0.9152 0.6889 0.0000
vt 0.9356 0.6996 0.0000
vt 0.9753 0.7309 0.0000
vt 0.9473 0.7373 0.0000
vt 0.9455 0.7291 0.0000
vt 0.9761 0.7228 0.0000
vt 0.9471 0.7208 0.0000
vt 0.9760 0.7132 0.0000
vt 0.9527 0.7123 0.0000
vt 0.9758 0.7023 0.0000
vt 0.9546 0.7023 0.0000
vt 0.9554 0.6923 0.0000
vt 0.9732 0.7375 0.0000
vt 0.9535 0.7421 0.0000
vt 0.9366 0.6779 0.0000
vt 0.9132 0.6788 0.0000
vt 0.9367 0.6684 0.0000
vt 0.9076 0.6703 0.0000
vt 0.9359 0.6602 0.0000
vt 0.9061 0.6620 0.0000
vt 0.9337 0.6535 0.0000
vt 0.9079 0.6538 0.0000
vt 0.9287 0.6485 0.0000
vt 0.9141 0.6490 0.0000
vt 0.9681 0.7426 0.0000
vt 0.9609 0.7441 0.0000
vt 0.9215 0.6470 0.0000
vt 0.9699 0.9914 0.0000
vt 0.8929 0.7290 0.0000
vt 0.9123 0.8258 0.0000
vt 0.9909 0.9914 0.0000
vt 0.9363 0.6889 0.0000
# 1020 texture coords

g piano
usemtl Material__27
s 1
f 1/1/1 2/2/1 3/3/1 
s 2
f 2/4/2 1/5/2 4/6/2 
s 1
f 4/7/3 5/8/3 6/9/3 
s 2
f 3/10/4 7/11/4 8/12/4 
s 1
f 8/13/3 9/14/5 10/15/5 
f 1/1/1 11/16/1 12/17/1 
s 4
f 3/18/6 10/19/6 11/20/6 
f 13/21/7 14/22/8 15/23/9 
s 1
f 4/7/3 16/24/3 17/25/3 
s 4
f 6/26/10 18/27/10 16/28/10 
s 1
f 7/29/11 19/30/11 18/31/11 
s 2
f 11/32/2 16/33/2 18/34/2 
f 19/35/6 20/36/12 21/37/12 
f 20/36/12 22/38/13 23/39/13 
f 22/38/13 24/40/14 25/41/14 
f 24/40/14 26/42/15 27/43/15 
f 28/44/16 27/43/15 29/45/16 
f 30/46/17 31/47/18 32/48/18 
f 31/47/18 33/49/19 34/50/19 
f 33/49/19 28/44/16 29/45/16 
s 1
f 12/17/1 35/51/11 36/52/11 
s 4
f 37/53/20 4/54/21 38/55/22 
f 14/22/8 37/53/20 39/56/8 
f 15/23/9 19/57/23 13/21/7 
s 2
f 4/6/2 13/58/2 2/4/2 
s 8
f 19/59/4 15/60/4 17/61/4 
s 1
f 36/52/11 40/62/11 12/17/1 
f 40/62/11 41/63/11 42/64/11 
s 4
f 43/65/24 44/66/6 45/67/25 
s 2
f 46/68/24 47/69/26 48/70/25 
s 4
f 49/71/27 50/72/28 51/73/29 
f 44/66/6 49/71/27 52/74/6 
f 45/67/25 36/75/30 43/65/24 
s 2
f 53/76/27 54/77/28 55/78/29 
f 47/69/26 53/76/27 56/79/26 
f 48/70/25 41/80/30 46/68/24 
s 8
f 40/81/6 36/82/6 54/83/6 
f 57/84/4 42/85/4 58/86/4 
s 2
f 59/87/4 36/88/31 51/89/32 
s 4
f 53/90/33 47/91/34 54/92/35 
s 1
f 9/14/5 50/93/5 10/15/5 
f 50/93/5 60/94/3 61/95/3 
f 35/51/11 11/16/1 30/96/11 
f 35/51/11 30/96/11 62/97/11 
s 8
f 50/98/4 49/99/36 60/100/37 
s 16
f 43/101/38 35/102/4 62/103/39 
s 2
f 60/104/40 44/105/41 61/106/42 
f 44/105/41 30/46/17 61/106/42 
f 44/105/41 62/107/43 30/46/17 
s 8
f 60/100/37 49/99/36 44/108/44 
s 16
f 44/108/45 43/101/38 62/103/39 
s 1
f 26/109/3 24/110/3 16/24/3 
f 18/31/11 21/111/11 27/112/11 
f 29/113/3 16/24/3 10/15/5 
f 11/16/1 18/31/11 28/114/11 
f 20/115/3 17/25/3 16/24/3 
f 18/31/11 19/30/11 21/111/11 
f 2/2/1 7/29/11 3/3/1 
s 2
f 1/5/2 5/116/2 4/6/2 
s 1
f 5/8/3 8/13/3 6/9/3 
s 2
f 7/11/4 6/117/4 8/12/4 
s 1
f 8/13/3 5/8/3 9/14/5 
f 1/1/1 3/3/1 11/16/1 
s 4
f 3/18/6 8/118/6 10/19/6 
f 14/22/8 39/56/8 15/23/9 
s 1
f 4/7/3 6/9/3 16/24/3 
s 4
f 6/26/10 7/119/10 18/27/10 
s 1
f 7/29/11 2/2/1 19/30/11 
s 2
f 11/32/2 10/120/2 16/33/2 
f 19/35/6 17/121/6 20/36/12 
f 23/39/13 21/37/12 20/36/12 
f 25/41/14 23/39/13 22/38/13 
f 27/43/15 25/41/14 24/40/14 
f 27/43/15 26/42/15 29/45/16 
f 32/48/18 61/106/42 30/46/17 
f 34/50/19 32/48/18 31/47/18 
f 29/45/16 34/50/19 33/49/19 
s 4
f 4/54/21 17/122/21 38/55/22 
f 37/53/20 38/55/22 39/56/8 
f 19/57/23 2/123/23 13/21/7 
s 2
f 4/6/2 37/124/2 14/125/2 
f 4/6/2 14/125/2 13/58/2 
s 8
f 39/126/4 38/127/4 17/61/4 
f 15/60/4 39/126/4 17/61/4 
s 1
f 40/62/11 42/64/11 12/17/1 
s 4
f 44/66/6 52/74/6 45/67/25 
s 2
f 47/69/26 56/79/26 48/70/25 
s 4
f 50/72/28 59/128/28 51/73/29 
f 49/71/27 51/73/29 52/74/6 
f 36/75/30 35/129/30 43/65/24 
s 2
f 54/77/28 58/130/28 55/78/29 
f 53/76/27 55/78/29 56/79/26 
f 41/80/30 40/131/30 46/68/24 
s 8
f 36/82/6 59/132/6 54/83/6 
f 42/85/4 41/133/4 48/134/46 
f 48/134/46 56/135/47 55/136/46 
f 48/134/46 55/136/46 58/86/4 
f 42/85/4 48/134/46 58/86/4 
s 2
f 36/88/31 45/137/48 52/138/49 
f 36/88/31 52/138/49 51/89/32 
s 4
f 47/91/34 46/139/50 40/140/51 
f 47/91/34 40/140/51 54/92/35 
s 1
f 34/141/3 29/113/3 10/15/5 
f 32/142/3 34/141/3 10/15/5 
f 50/93/5 61/95/3 10/15/5 
f 35/51/11 12/17/1 11/16/1 
f 11/16/1 28/114/11 33/143/11 
f 11/16/1 33/143/11 31/144/11 
f 24/110/3 22/145/3 20/115/3 
f 24/110/3 20/115/3 16/24/3 
f 23/146/11 25/147/11 27/112/11 
f 21/111/11 23/146/11 27/112/11 
f 29/113/3 26/109/3 16/24/3 
f 18/31/11 27/112/11 28/114/11 
f 63/148/2 64/149/2 65/150/2 
s 2
f 65/151/52 66/152/53 67/153/52 
f 68/154/53 69/155/6 66/152/53 
f 70/156/26 71/157/54 69/158/6 
f 72/159/54 73/160/55 71/157/54 
f 74/161/55 75/162/56 73/160/55 
f 76/163/56 77/164/10 75/162/56 
f 64/165/10 78/166/57 77/164/10 
f 63/167/57 67/153/52 78/166/57 
s 1
f 79/168/57 80/169/10 81/170/57 
f 82/171/10 83/172/56 80/169/10 
f 84/173/56 85/174/3 83/172/56 
f 86/175/3 87/176/54 85/174/3 
f 88/177/54 89/178/26 87/176/54 
f 90/179/6 91/180/53 89/181/26 
f 92/182/53 93/183/11 91/180/53 
f 94/184/11 81/170/57 93/183/11 
s 4
f 81/185/58 77/186/59 78/187/58 
f 80/188/59 75/189/60 77/186/59 
f 83/190/60 73/191/61 75/189/60 
f 85/192/61 71/193/62 73/191/61 
f 87/194/62 69/195/63 71/193/62 
f 89/196/63 66/197/64 69/198/63 
f 91/199/64 67/200/65 66/197/64 
f 93/201/65 78/187/58 67/200/65 
s 1
f 95/202/2 96/203/2 97/204/2 
f 98/205/6 99/206/6 100/207/6 
f 101/208/3 102/209/3 103/210/3 
f 104/211/11 105/212/11 106/213/11 
s 2
f 103/214/10 107/215/10 104/216/10 
s 4
f 108/217/2 107/218/2 102/219/2 
f 109/220/2 105/221/2 107/222/2 
f 110/223/2 111/224/2 105/225/2 
f 100/226/2 102/227/2 111/228/2 
s 1
f 112/229/6 113/230/6 114/231/6 
s 2
f 115/232/11 116/233/11 117/234/11 
s 1
f 116/235/10 115/236/10 118/237/10 
s 2
f 118/238/3 119/239/3 112/240/3 
f 106/241/6 111/242/6 101/243/6 
s 4
f 113/244/4 119/245/4 117/246/4 
f 104/247/2 114/248/2 116/249/2 
f 106/250/2 112/251/2 114/252/2 
f 101/253/2 118/254/2 112/255/2 
f 103/256/2 116/257/2 118/258/2 
s 1
f 61/95/3 32/142/3 10/15/5 
f 11/16/1 31/144/11 30/96/11 
s 2
f 120/259/66 121/260/66 122/261/66 
f 123/262/6 124/263/6 125/264/6 
s 4
f 123/265/67 126/266/67 127/267/67 
s 8
f 125/268/68 128/269/68 126/270/68 
s 4
f 124/271/69 129/272/69 128/273/69 
s 1
f 121/274/6 128/275/6 129/276/6 
f 130/277/6 126/278/26 128/279/6 
f 131/280/26 127/281/26 126/282/26 
f 122/283/26 129/284/6 127/285/26 
s 8
f 123/286/70 127/287/70 132/288/70 
s 2
f 133/289/71 131/290/72 130/291/72 
f 134/292/73 135/293/73 136/294/71 
f 137/295/74 138/296/74 135/293/73 
f 139/297/75 140/298/75 138/296/74 
f 141/299/76 142/300/76 140/298/75 
s 1
f 142/301/6 141/302/6 143/303/26 
f 142/301/6 144/304/77 145/305/78 
s 2
f 145/306/79 144/307/79 146/308/80 
f 147/309/81 148/310/82 143/311/83 
s 1
f 148/312/6 147/313/6 149/314/6 
f 150/315/84 151/316/85 144/304/77 
s 4
f 150/317/86 148/318/3 152/319/87 
s 1
f 153/320/6 146/321/6 154/322/6 
f 155/323/88 156/324/26 157/325/88 
s 4
f 150/317/86 143/326/3 148/318/3 
f 151/327/89 154/328/90 146/329/91 
s 1
f 158/330/6 143/303/26 141/302/6 
s 4
f 151/327/89 155/331/92 159/332/93 
s 2
f 156/333/2 155/334/2 150/335/2 
s 4
f 144/336/94 151/327/89 146/329/91 
f 150/317/86 157/337/95 156/338/96 
s 1
f 17/339/2 160/340/2 161/341/2 
s 2
f 162/342/4 163/343/4 152/344/97 
s 4
f 17/345/78 163/346/78 162/347/78 
s 2
f 163/343/4 164/348/4 154/349/98 
f 154/349/98 159/350/97 152/344/97 
f 149/351/4 162/342/4 152/344/97 
s 4
f 165/352/99 166/353/99 167/354/99 
s 8
f 168/355/100 169/356/100 165/357/100 
s 16
f 170/358/3 166/359/3 169/360/3 
s 64
f 171/361/11 165/362/11 167/363/11 
s 4
f 172/364/99 173/365/99 174/366/99 
s 8
f 175/367/100 176/368/100 172/369/100 
s 16
f 177/370/3 173/371/3 176/372/3 
s 64
f 178/373/11 172/374/11 174/375/11 
s 4
f 179/352/99 180/353/99 181/354/99 
s 8
f 182/355/100 183/356/100 179/357/100 
s 16
f 184/358/3 180/359/3 183/360/3 
s 64
f 185/361/11 179/362/11 181/363/11 
s 4
f 186/376/99 187/377/99 188/378/99 
s 8
f 189/379/100 190/380/100 186/381/100 
s 16
f 191/382/3 187/383/3 190/384/3 
s 64
f 192/385/11 186/386/11 188/387/11 
s 4
f 193/364/99 194/365/99 195/366/99 
s 8
f 196/367/100 197/368/100 193/369/100 
s 16
f 198/370/3 194/371/3 197/372/3 
s 64
f 199/373/11 193/374/11 195/375/11 
s 4
f 200/352/99 201/353/99 202/354/99 
s 8
f 203/355/100 204/356/100 200/357/100 
s 16
f 205/358/3 201/359/3 204/360/3 
s 64
f 206/361/11 200/362/11 202/363/11 
s 4
f 207/364/99 208/365/99 209/366/99 
s 8
f 210/367/100 211/368/100 207/369/100 
s 16
f 212/370/3 208/371/3 211/372/3 
s 64
f 213/373/11 207/374/11 209/375/11 
s 4
f 214/352/99 215/353/99 216/354/99 
s 8
f 217/355/100 218/356/100 214/357/100 
s 16
f 219/358/3 215/359/3 218/360/3 
s 64
f 220/361/11 214/362/11 216/363/11 
s 4
f 221/364/99 222/365/99 223/366/99 
s 8
f 224/367/100 225/368/100 221/369/100 
s 16
f 226/370/3 222/371/3 225/372/3 
s 64
f 227/373/11 221/374/11 223/375/11 
s 4
f 228/376/99 229/377/99 230/378/99 
s 8
f 231/379/100 232/380/100 228/381/100 
s 16
f 233/382/3 229/383/3 232/384/3 
s 64
f 234/385/11 228/386/11 230/387/11 
s 4
f 235/352/99 236/353/99 237/354/99 
s 8
f 238/355/100 239/356/100 235/357/100 
s 16
f 240/358/3 236/359/3 239/360/3 
s 64
f 241/361/11 235/362/11 237/363/11 
s 4
f 242/364/99 243/365/99 244/366/99 
s 8
f 245/367/100 246/368/100 242/369/100 
s 16
f 247/370/3 243/371/3 246/372/3 
s 64
f 248/373/11 242/374/11 244/375/11 
s 4
f 249/352/99 250/353/99 251/354/99 
s 8
f 252/355/100 253/356/100 249/357/100 
s 16
f 254/358/3 250/359/3 253/360/3 
s 64
f 255/361/11 249/362/11 251/363/11 
s 4
f 256/376/99 257/377/99 258/378/99 
s 8
f 259/379/100 260/380/100 256/381/100 
s 16
f 261/382/3 257/383/3 260/384/3 
s 64
f 262/385/11 256/386/11 258/387/11 
s 4
f 263/352/99 264/353/99 265/354/99 
s 8
f 266/355/100 267/356/100 263/357/100 
s 16
f 268/358/3 264/359/3 267/360/3 
s 64
f 269/361/11 263/362/11 265/363/11 
s 4
f 270/352/99 271/353/99 272/354/99 
s 8
f 273/355/100 274/356/100 270/357/100 
s 16
f 275/358/3 271/359/3 274/360/3 
s 64
f 276/361/11 270/362/11 272/363/11 
s 4
f 277/352/99 278/353/99 279/354/99 
s 8
f 280/355/100 281/356/100 277/357/100 
s 16
f 282/358/3 278/359/3 281/360/3 
s 64
f 283/361/11 277/362/11 279/363/11 
s 4
f 284/364/99 285/365/99 286/366/99 
s 8
f 287/367/100 288/368/100 284/369/100 
s 16
f 289/370/3 285/371/3 288/372/3 
s 64
f 290/373/11 284/374/11 286/375/11 
s 4
f 291/376/99 292/377/99 293/378/99 
s 8
f 294/379/100 295/380/100 291/381/100 
s 16
f 296/382/3 292/383/3 295/384/3 
s 64
f 297/385/11 291/386/11 293/387/11 
s 4
f 298/352/99 299/353/99 300/354/99 
s 8
f 301/355/100 302/356/100 298/357/100 
s 16
f 303/358/3 299/359/3 302/360/3 
s 64
f 304/361/11 298/362/11 300/363/11 
s 4
f 305/364/99 306/365/99 307/366/99 
s 8
f 308/367/100 309/368/100 305/369/100 
s 16
f 310/370/3 306/371/3 309/372/3 
s 64
f 311/373/11 305/374/11 307/375/11 
s 4
f 312/364/99 313/365/99 314/366/99 
s 8
f 315/367/100 316/368/100 312/369/100 
s 16
f 317/370/3 313/371/3 316/372/3 
s 64
f 318/373/11 312/374/11 314/375/11 
s 4
f 319/352/99 320/353/99 321/354/99 
s 8
f 322/355/100 323/356/100 319/357/100 
s 16
f 324/358/3 320/359/3 323/360/3 
s 64
f 325/361/11 319/362/11 321/363/11 
s 4
f 326/352/99 327/353/99 328/354/99 
s 8
f 329/355/100 330/356/100 326/357/100 
s 16
f 331/358/3 327/359/3 330/360/3 
s 64
f 332/361/11 326/362/11 328/363/11 
s 4
f 333/364/99 334/365/99 335/366/99 
s 8
f 336/367/100 337/368/100 333/369/100 
s 16
f 338/370/3 334/371/3 337/372/3 
s 64
f 339/373/11 333/374/11 335/375/11 
s 4
f 340/376/99 341/377/99 342/378/99 
s 8
f 343/379/100 344/380/100 340/381/100 
s 16
f 345/382/3 341/383/3 344/384/3 
s 64
f 346/385/11 340/386/11 342/387/11 
s 4
f 347/364/99 348/365/99 349/366/99 
s 8
f 350/367/100 351/368/100 347/369/100 
s 16
f 352/370/3 348/371/3 351/372/3 
s 64
f 353/373/11 347/374/11 349/375/11 
s 4
f 354/352/99 355/353/99 356/354/99 
s 8
f 357/355/100 358/356/100 354/357/100 
s 16
f 359/358/3 355/359/3 358/360/3 
s 64
f 360/361/11 354/362/11 356/363/11 
s 4
f 361/376/99 362/377/99 363/378/99 
s 8
f 364/379/100 365/380/100 361/381/100 
s 16
f 366/382/3 362/383/3 365/384/3 
s 64
f 367/385/11 361/386/11 363/387/11 
s 4
f 368/352/99 369/353/99 370/354/99 
s 8
f 371/355/100 372/356/100 368/357/100 
s 16
f 373/358/3 369/359/3 372/360/3 
s 64
f 374/361/11 368/362/11 370/363/11 
s 4
f 375/364/99 376/365/99 377/366/99 
s 8
f 378/367/100 379/368/100 375/369/100 
s 16
f 380/370/3 376/371/3 379/372/3 
s 64
f 381/373/11 375/374/11 377/375/11 
s 4
f 382/364/99 383/365/99 384/366/99 
s 8
f 385/367/100 386/368/100 382/369/100 
s 16
f 387/370/3 383/371/3 386/372/3 
s 64
f 388/373/11 382/374/11 384/375/11 
s 4
f 389/352/99 390/353/99 391/354/99 
s 8
f 392/355/100 393/356/100 389/357/100 
s 16
f 394/358/3 390/359/3 393/360/3 
s 64
f 395/361/11 389/362/11 391/363/11 
s 4
f 396/376/99 397/377/99 398/378/99 
s 8
f 399/379/100 400/380/100 396/381/100 
s 16
f 401/382/3 397/383/3 400/384/3 
s 64
f 402/385/11 396/386/11 398/387/11 
s 4
f 403/364/99 404/365/99 405/366/99 
s 8
f 406/367/100 407/368/100 403/369/100 
s 16
f 408/370/3 404/371/3 407/372/3 
s 64
f 409/373/11 403/374/11 405/375/11 
s 4
f 410/352/99 411/353/99 412/354/99 
s 8
f 413/355/100 414/356/100 410/357/100 
s 16
f 415/358/3 411/359/3 414/360/3 
s 64
f 416/361/11 410/362/11 412/363/11 
s 4
f 417/376/99 418/377/99 419/378/99 
s 8
f 420/379/100 421/380/100 417/381/100 
s 16
f 422/382/3 418/383/3 421/384/3 
s 64
f 423/385/11 417/386/11 419/387/11 
s 4
f 424/388/4 425/389/4 426/390/4 
s 8
f 427/391/6 428/392/6 424/393/6 
s 16
f 429/394/3 425/395/3 428/396/3 
s 64
f 430/397/11 424/398/11 426/399/11 
s 2
f 431/400/3 432/401/3 109/402/3 
s 8
f 109/403/10 432/404/10 110/405/10 
s 2
f 110/406/101 433/407/52 434/408/1 
f 109/402/3 435/409/3 431/400/3 
f 434/408/1 436/410/1 110/406/101 
f 436/410/1 434/408/1 100/411/1 
f 431/400/3 435/409/3 437/412/3 
s 4
f 160/413/6 438/414/6 439/415/6 
s 2
f 160/416/3 439/417/3 432/401/3 
f 433/407/52 440/418/11 438/419/11 
s off
f 432/420/2 441/421/2 442/422/2 
f 439/423/2 443/424/2 441/425/2 
f 440/426/2 444/427/2 443/428/2 
f 433/429/2 442/430/2 444/431/2 
f 442/432/11 97/433/11 96/434/11 
f 441/435/10 95/436/10 97/437/10 
f 443/438/3 445/439/3 95/440/3 
f 444/441/6 96/442/6 445/443/6 
s 1
f 99/206/6 108/444/6 100/207/6 
f 120/445/6 437/446/6 108/444/6 
f 446/447/5 447/448/5 448/449/5 
s 2
f 448/450/2 449/451/2 446/452/2 
s 1
f 449/453/11 450/454/11 451/455/11 
s 2
f 447/456/4 452/457/4 453/458/4 
s 1
f 452/459/11 454/460/11 455/461/11 
f 446/447/5 456/462/5 457/463/5 
s 4
f 447/464/6 457/465/6 454/466/6 
f 458/467/102 459/468/103 460/469/104 
s 1
f 449/453/11 161/470/11 461/471/11 
s 4
f 450/472/10 461/473/10 462/474/10 
s 1
f 453/475/3 462/476/3 463/477/3 
s 2
f 457/478/2 462/479/2 461/480/2 
f 463/481/6 464/482/12 465/483/12 
f 465/483/12 466/484/13 467/485/13 
f 467/485/13 468/486/14 469/487/14 
f 469/487/14 470/488/15 471/489/15 
f 472/490/16 473/491/16 470/488/15 
f 474/492/42 475/493/18 476/494/18 
f 476/494/18 477/495/19 478/496/19 
f 478/496/19 473/491/16 472/490/16 
s 1
f 456/462/5 479/497/3 480/498/3 
s 4
f 481/499/105 482/500/106 449/501/23 
f 460/469/104 483/502/104 481/499/105 
f 459/468/103 458/467/102 463/503/21 
s 2
f 449/451/2 448/450/2 458/504/2 
s 8
f 463/505/4 161/506/4 459/507/4 
s 1
f 479/497/3 456/462/5 484/508/3 
f 484/508/3 485/509/3 486/510/3 
s 4
f 487/511/27 488/512/29 489/513/26 
s 2
f 490/514/27 491/515/29 492/516/6 
s 4
f 493/517/24 494/518/25 495/519/30 
f 489/513/26 496/520/6 493/517/24 
f 488/512/29 487/511/27 479/521/28 
s 2
f 497/522/24 498/523/25 499/524/30 
f 492/516/6 500/525/26 497/522/24 
f 491/515/29 490/514/27 486/526/28 
s 8
f 484/527/6 499/528/6 479/529/6 
f 501/530/4 502/531/4 485/532/4 
s 2
f 503/533/4 494/534/107 479/535/108 
s 4
f 497/536/50 499/537/51 492/538/34 
s 1
f 455/461/11 454/460/11 495/539/11 
f 495/539/11 504/540/11 505/541/11 
f 480/498/3 474/542/3 457/463/5 
f 480/498/3 506/543/3 474/542/3 
s 8
f 495/544/4 505/545/39 493/546/38 
s 16
f 487/547/36 506/548/37 480/549/4 
s 2
f 505/550/43 504/551/17 489/552/109 
f 489/552/109 504/551/17 474/492/42 
f 489/552/109 474/492/42 506/553/40 
s 8
f 505/545/39 489/554/45 493/546/38 
s 16
f 489/554/44 506/548/37 487/547/36 
s 1
f 471/555/11 461/471/11 469/556/11 
f 462/476/3 470/557/3 464/558/3 
f 473/559/11 454/460/11 461/471/11 
f 457/463/5 472/560/3 462/476/3 
f 465/561/11 461/471/11 161/470/11 
f 462/476/3 464/558/3 463/477/3 
f 448/449/5 447/448/5 453/475/3 
s 2
f 446/452/2 449/451/2 451/562/2 
s 1
f 451/455/11 450/454/11 452/459/11 
s 2
f 453/458/4 452/457/4 450/563/4 
s 1
f 452/459/11 455/461/11 451/455/11 
f 446/447/5 457/463/5 447/448/5 
s 4
f 447/464/6 454/466/6 452/564/6 
f 460/469/104 459/468/103 483/502/104 
s 1
f 449/453/11 461/471/11 450/454/11 
s 4
f 450/472/10 462/474/10 453/565/10 
s 1
f 453/475/3 463/477/3 448/449/5 
s 2
f 457/478/2 461/480/2 454/566/2 
f 463/481/6 465/483/12 161/567/6 
f 466/484/13 465/483/12 464/482/12 
f 468/486/14 467/485/13 466/484/13 
f 470/488/15 469/487/14 468/486/14 
f 470/488/15 473/491/16 471/489/15 
f 475/493/18 474/492/42 504/551/17 
f 477/495/19 476/494/18 475/493/18 
f 473/491/16 478/496/19 477/495/19 
s 4
f 449/501/23 482/500/106 161/568/23 
f 481/499/105 483/502/104 482/500/106 
f 463/503/21 458/467/102 448/569/21 
s 2
f 449/451/2 460/570/2 481/571/2 
f 449/451/2 458/504/2 460/570/2 
s 8
f 483/572/4 161/506/4 482/573/4 
f 459/507/4 161/506/4 483/572/4 
s 1
f 484/508/3 456/462/5 485/509/3 
s 4
f 489/513/26 488/512/29 496/520/6 
s 2
f 492/516/6 491/515/29 500/525/26 
s 4
f 495/519/30 494/518/25 503/574/30 
f 493/517/24 496/520/6 494/518/25 
f 479/521/28 487/511/27 480/575/28 
s 2
f 499/524/30 498/523/25 502/576/30 
f 497/522/24 500/525/26 498/523/25 
f 486/526/28 490/514/27 484/577/28 
s 8
f 479/529/6 499/528/6 503/578/6 
f 485/532/4 491/579/46 486/580/4 
f 491/579/46 498/581/46 500/582/47 
f 491/579/46 502/531/4 498/581/46 
f 485/532/4 502/531/4 491/579/46 
s 2
f 479/535/108 496/583/110 488/584/111 
f 479/535/108 494/534/107 496/583/110 
s 4
f 492/538/34 484/585/35 490/586/33 
f 492/538/34 499/537/51 484/585/35 
s 1
f 477/587/11 454/460/11 473/559/11 
f 475/588/11 454/460/11 477/587/11 
f 495/539/11 454/460/11 504/540/11 
f 480/498/3 457/463/5 456/462/5 
f 457/463/5 478/589/3 472/560/3 
f 457/463/5 476/590/3 478/589/3 
f 469/556/11 465/561/11 467/591/11 
f 469/556/11 461/471/11 465/561/11 
f 466/592/3 470/557/3 468/593/3 
f 464/558/3 470/557/3 466/592/3 
f 473/559/11 461/471/11 471/555/11 
f 462/476/3 472/560/3 470/557/3 
f 507/594/2 508/595/2 509/596/2 
s 2
f 508/597/55 510/598/54 511/599/54 
f 511/599/54 512/600/6 513/601/26 
f 513/602/26 514/603/53 515/604/53 
f 515/604/53 516/605/52 517/606/52 
f 517/606/52 518/607/57 519/608/57 
f 519/608/57 520/609/10 509/610/10 
f 509/610/10 521/611/56 507/612/56 
f 507/612/56 522/613/55 508/597/55 
s 1
f 523/614/56 524/615/112 525/616/10 
f 525/616/10 526/617/57 527/618/57 
f 527/618/57 528/619/11 529/620/11 
f 529/620/11 530/621/53 531/622/53 
f 531/622/53 532/623/26 533/624/6 
f 533/625/6 534/626/54 535/627/54 
f 535/627/54 536/628/3 537/629/3 
f 537/629/3 538/630/56 523/614/56 
s 4
f 538/631/60 520/632/113 524/633/113 
f 524/633/113 518/634/58 526/635/58 
f 526/635/58 516/636/65 528/637/114 
f 528/637/114 514/638/64 530/639/64 
f 530/639/64 512/640/115 532/641/115 
f 532/642/115 510/643/62 534/644/62 
f 534/644/62 522/645/61 536/646/61 
f 536/646/61 521/647/60 538/631/60 
s 1
f 504/540/11 454/460/11 475/588/11 
f 457/463/5 474/542/3 476/590/3 
f 64/149/2 76/648/2 74/649/2 
f 74/649/2 72/650/2 70/651/2 
f 70/651/2 68/652/2 65/150/2 
f 74/649/2 70/651/2 65/150/2 
f 64/149/2 74/649/2 65/150/2 
s 2
f 65/151/52 68/154/53 66/152/53 
f 68/154/53 70/653/26 69/155/6 
f 70/156/26 72/159/54 71/157/54 
f 72/159/54 74/161/55 73/160/55 
f 74/161/55 76/163/56 75/162/56 
f 76/163/56 64/165/10 77/164/10 
f 64/165/10 63/167/57 78/166/57 
f 63/167/57 65/151/52 67/153/52 
s 1
f 79/168/57 82/171/10 80/169/10 
f 82/171/10 84/173/56 83/172/56 
f 84/173/56 86/175/3 85/174/3 
f 86/175/3 88/177/54 87/176/54 
f 88/177/54 90/654/6 89/178/26 
f 90/179/6 92/182/53 91/180/53 
f 92/182/53 94/184/11 93/183/11 
f 94/184/11 79/168/57 81/170/57 
s 4
f 81/185/58 80/188/59 77/186/59 
f 80/188/59 83/190/60 75/189/60 
f 83/190/60 85/192/61 73/191/61 
f 85/192/61 87/194/62 71/193/62 
f 87/194/62 89/655/63 69/195/63 
f 89/196/63 91/199/64 66/197/64 
f 91/199/64 93/201/65 67/200/65 
f 93/201/65 81/185/58 78/187/58 
s 1
f 95/202/2 445/656/2 96/203/2 
f 102/209/3 107/657/3 103/210/3 
f 105/212/11 111/658/11 106/213/11 
s 2
f 107/215/10 105/659/10 104/216/10 
s 4
f 108/217/2 109/660/2 107/218/2 
f 109/220/2 110/661/2 105/221/2 
f 110/223/2 100/662/2 111/224/2 
f 100/226/2 108/663/2 102/227/2 
s 1
f 113/230/6 117/664/6 114/231/6 
s 2
f 116/233/11 114/665/11 117/234/11 
s 1
f 115/236/10 119/666/10 118/237/10 
s 2
f 119/239/3 113/667/3 112/240/3 
f 111/242/6 102/668/6 101/243/6 
s 4
f 119/245/4 115/669/4 117/246/4 
f 104/247/2 106/670/2 114/248/2 
f 106/250/2 101/671/2 112/251/2 
f 101/253/2 103/672/2 118/254/2 
f 103/256/2 104/673/2 116/257/2 
s 2
f 120/259/66 99/674/66 121/260/66 
f 123/262/6 132/675/6 124/263/6 
s 4
f 123/265/67 125/676/67 126/266/67 
s 8
f 125/268/68 124/677/68 128/269/68 
s 4
f 124/271/69 132/678/69 129/272/69 
s 1
f 121/274/6 130/679/6 128/275/6 
f 130/277/6 131/680/26 126/278/26 
f 131/280/26 122/681/26 127/281/26 
f 122/283/26 121/682/6 129/284/6 
s 8
f 127/287/70 129/683/70 132/288/70 
s 2
f 133/289/71 136/294/71 131/290/72 
f 136/294/71 133/289/71 134/292/73 
f 135/293/73 134/292/73 137/295/74 
f 138/296/74 137/295/74 139/297/75 
f 140/298/75 139/297/75 141/299/76 
s 1
f 143/303/26 144/304/77 142/301/6 
s 2
f 146/308/80 153/684/116 145/306/79 
f 143/311/83 158/685/117 147/309/81 
s 1
f 149/314/6 152/686/6 148/312/6 
f 144/304/77 143/303/26 150/315/84 
s 4
f 152/319/87 157/337/95 150/317/86 
s 1
f 154/322/6 164/687/6 153/320/6 
f 157/325/88 159/688/88 155/323/88 
s 4
f 151/327/89 159/332/93 154/328/90 
s 2
f 155/334/2 151/689/2 150/335/2 
s 1
f 17/339/2 438/690/2 160/340/2 
s 2
f 163/343/4 154/349/98 152/344/97 
s 4
f 17/345/78 161/691/6 163/346/78 
s 2
f 159/350/97 157/692/97 152/344/97 
s 4
f 165/352/99 169/693/99 166/353/99 
s 8
f 168/355/100 170/694/100 169/356/100 
s 16
f 170/358/3 539/695/3 166/359/3 
s 64
f 171/361/11 168/696/11 165/362/11 
s 4
f 172/364/99 176/697/99 173/365/99 
s 8
f 175/367/100 177/698/100 176/368/100 
s 16
f 177/370/3 540/699/3 173/371/3 
s 64
f 178/373/11 175/700/11 172/374/11 
s 4
f 179/352/99 183/693/99 180/353/99 
s 8
f 182/355/100 184/694/100 183/356/100 
s 16
f 184/358/3 541/695/3 180/359/3 
s 64
f 185/361/11 182/696/11 179/362/11 
s 4
f 186/376/99 190/701/99 187/377/99 
s 8
f 189/379/100 191/702/100 190/380/100 
s 16
f 191/382/3 542/703/3 187/383/3 
s 64
f 192/385/11 189/704/11 186/386/11 
s 4
f 193/364/99 197/697/99 194/365/99 
s 8
f 196/367/100 198/698/100 197/368/100 
s 16
f 198/370/3 543/699/3 194/371/3 
s 64
f 199/373/11 196/700/11 193/374/11 
s 4
f 200/352/99 204/693/99 201/353/99 
s 8
f 203/355/100 205/694/100 204/356/100 
s 16
f 205/358/3 544/695/3 201/359/3 
s 64
f 206/361/11 203/696/11 200/362/11 
s 4
f 207/364/99 211/697/99 208/365/99 
s 8
f 210/367/100 212/698/100 211/368/100 
s 16
f 212/370/3 545/699/3 208/371/3 
s 64
f 213/373/11 210/700/11 207/374/11 
s 4
f 214/352/99 218/693/99 215/353/99 
s 8
f 217/355/100 219/694/100 218/356/100 
s 16
f 219/358/3 546/695/3 215/359/3 
s 64
f 220/361/11 217/696/11 214/362/11 
s 4
f 221/364/99 225/697/99 222/365/99 
s 8
f 224/367/100 226/698/100 225/368/100 
s 16
f 226/370/3 547/699/3 222/371/3 
s 64
f 227/373/11 224/700/11 221/374/11 
s 4
f 228/376/99 232/701/99 229/377/99 
s 8
f 231/379/100 233/702/100 232/380/100 
s 16
f 233/382/3 548/703/3 229/383/3 
s 64
f 234/385/11 231/704/11 228/386/11 
s 4
f 235/352/99 239/693/99 236/353/99 
s 8
f 238/355/100 240/694/100 239/356/100 
s 16
f 240/358/3 549/695/3 236/359/3 
s 64
f 241/361/11 238/696/11 235/362/11 
s 4
f 242/364/99 246/697/99 243/365/99 
s 8
f 245/367/100 247/698/100 246/368/100 
s 16
f 247/370/3 550/699/3 243/371/3 
s 64
f 248/373/11 245/700/11 242/374/11 
s 4
f 249/352/99 253/693/99 250/353/99 
s 8
f 252/355/100 254/694/100 253/356/100 
s 16
f 254/358/3 551/695/3 250/359/3 
s 64
f 255/361/11 252/696/11 249/362/11 
s 4
f 256/376/99 260/701/99 257/377/99 
s 8
f 259/379/100 261/702/100 260/380/100 
s 16
f 261/382/3 552/703/3 257/383/3 
s 64
f 262/385/11 259/704/11 256/386/11 
s 4
f 263/352/99 267/693/99 264/353/99 
s 8
f 266/355/100 268/694/100 267/356/100 
s 16
f 268/358/3 553/695/3 264/359/3 
s 64
f 269/361/11 266/696/11 263/362/11 
s 4
f 270/352/99 274/693/99 271/353/99 
s 8
f 273/355/100 275/694/100 274/356/100 
s 16
f 275/358/3 554/695/3 271/359/3 
s 64
f 276/361/11 273/696/11 270/362/11 
s 4
f 277/352/99 281/693/99 278/353/99 
s 8
f 280/355/100 282/694/100 281/356/100 
s 16
f 282/358/3 555/695/3 278/359/3 
s 64
f 283/361/11 280/696/11 277/362/11 
s 4
f 284/364/99 288/697/99 285/365/99 
s 8
f 287/367/100 289/698/100 288/368/100 
s 16
f 289/370/3 556/699/3 285/371/3 
s 64
f 290/373/11 287/700/11 284/374/11 
s 4
f 291/376/99 295/701/99 292/377/99 
s 8
f 294/379/100 296/702/100 295/380/100 
s 16
f 296/382/3 557/703/3 292/383/3 
s 64
f 297/385/11 294/704/11 291/386/11 
s 4
f 298/352/99 302/693/99 299/353/99 
s 8
f 301/355/100 303/694/100 302/356/100 
s 16
f 303/358/3 558/695/3 299/359/3 
s 64
f 304/361/11 301/696/11 298/362/11 
s 4
f 305/364/99 309/697/99 306/365/99 
s 8
f 308/367/100 310/698/100 309/368/100 
s 16
f 310/370/3 559/699/3 306/371/3 
s 64
f 311/373/11 308/700/11 305/374/11 
s 4
f 312/364/99 316/697/99 313/365/99 
s 8
f 315/367/100 317/698/100 316/368/100 
s 16
f 317/370/3 560/699/3 313/371/3 
s 64
f 318/373/11 315/700/11 312/374/11 
s 4
f 319/352/99 323/693/99 320/353/99 
s 8
f 322/355/100 324/694/100 323/356/100 
s 16
f 324/358/3 561/695/3 320/359/3 
s 64
f 325/361/11 322/696/11 319/362/11 
s 4
f 326/352/99 330/693/99 327/353/99 
s 8
f 329/355/100 331/694/100 330/356/100 
s 16
f 331/358/3 562/695/3 327/359/3 
s 64
f 332/361/11 329/696/11 326/362/11 
s 4
f 333/364/99 337/697/99 334/365/99 
s 8
f 336/367/100 338/698/100 337/368/100 
s 16
f 338/370/3 563/699/3 334/371/3 
s 64
f 339/373/11 336/700/11 333/374/11 
s 4
f 340/376/99 344/701/99 341/377/99 
s 8
f 343/379/100 345/702/100 344/380/100 
s 16
f 345/382/3 564/703/3 341/383/3 
s 64
f 346/385/11 343/704/11 340/386/11 
s 4
f 347/364/99 351/697/99 348/365/99 
s 8
f 350/367/100 352/698/100 351/368/100 
s 16
f 352/370/3 565/699/3 348/371/3 
s 64
f 353/373/11 350/700/11 347/374/11 
s 4
f 354/352/99 358/693/99 355/353/99 
s 8
f 357/355/100 359/694/100 358/356/100 
s 16
f 359/358/3 566/695/3 355/359/3 
s 64
f 360/361/11 357/696/11 354/362/11 
s 4
f 361/376/99 365/701/99 362/377/99 
s 8
f 364/379/100 366/702/100 365/380/100 
s 16
f 366/382/3 567/703/3 362/383/3 
s 64
f 367/385/11 364/704/11 361/386/11 
s 4
f 368/352/99 372/693/99 369/353/99 
s 8
f 371/355/100 373/694/100 372/356/100 
s 16
f 373/358/3 568/695/3 369/359/3 
s 64
f 374/361/11 371/696/11 368/362/11 
s 4
f 375/364/99 379/697/99 376/365/99 
s 8
f 378/367/100 380/698/100 379/368/100 
s 16
f 380/370/3 569/699/3 376/371/3 
s 64
f 381/373/11 378/700/11 375/374/11 
s 4
f 382/364/99 386/697/99 383/365/99 
s 8
f 385/367/100 387/698/100 386/368/100 
s 16
f 387/370/3 570/699/3 383/371/3 
s 64
f 388/373/11 385/700/11 382/374/11 
s 4
f 389/352/99 393/693/99 390/353/99 
s 8
f 392/355/100 394/694/100 393/356/100 
s 16
f 394/358/3 571/695/3 390/359/3 
s 64
f 395/361/11 392/696/11 389/362/11 
s 4
f 396/376/99 400/701/99 397/377/99 
s 8
f 399/379/100 401/702/100 400/380/100 
s 16
f 401/382/3 572/703/3 397/383/3 
s 64
f 402/385/11 399/704/11 396/386/11 
s 4
f 403/364/99 407/697/99 404/365/99 
s 8
f 406/367/100 408/698/100 407/368/100 
s 16
f 408/370/3 573/699/3 404/371/3 
s 64
f 409/373/11 406/700/11 403/374/11 
s 4
f 410/352/99 414/693/99 411/353/99 
s 8
f 413/355/100 415/694/100 414/356/100 
s 16
f 415/358/3 574/695/3 411/359/3 
s 64
f 416/361/11 413/696/11 410/362/11 
s 4
f 417/376/99 421/701/99 418/377/99 
s 8
f 420/379/100 422/702/100 421/380/100 
s 16
f 422/382/3 575/703/3 418/383/3 
s 64
f 423/385/11 420/704/11 417/386/11 
s 4
f 424/388/4 428/705/4 425/389/4 
s 8
f 427/391/6 429/706/6 428/392/6 
s 16
f 429/394/3 576/707/3 425/395/3 
s 64
f 430/397/11 427/708/11 424/398/11 
s 2
f 431/400/3 160/416/3 432/401/3 
s 8
f 432/404/10 433/709/10 110/405/10 
s 2
f 433/407/52 438/419/11 434/408/1 
f 434/408/1 98/710/11 100/411/1 
f 435/409/3 108/711/3 437/412/3 
s 4
f 438/414/6 440/712/6 439/415/6 
s off
f 432/420/2 439/713/2 441/421/2 
f 439/423/2 440/714/2 443/424/2 
f 440/426/2 433/715/2 444/427/2 
f 433/429/2 432/716/2 442/430/2 
f 442/432/11 441/717/11 97/433/11 
f 441/435/10 443/718/10 95/436/10 
f 443/438/3 444/719/3 445/439/3 
f 444/441/6 442/720/6 96/442/6 
s 1
f 99/206/6 120/445/6 108/444/6 
f 508/595/2 511/721/2 513/722/2 
f 513/722/2 515/723/2 517/724/2 
f 508/595/2 513/722/2 517/724/2 
f 517/724/2 519/725/2 509/596/2 
f 508/595/2 517/724/2 509/596/2 
s 2
f 508/597/55 522/613/55 510/598/54 
f 511/599/54 510/598/54 512/600/6 
f 513/602/26 512/726/6 514/603/53 
f 515/604/53 514/603/53 516/605/52 
f 517/606/52 516/605/52 518/607/57 
f 519/608/57 518/607/57 520/609/10 
f 509/610/10 520/609/10 521/611/56 
f 507/612/56 521/611/56 522/613/55 
s 1
f 523/614/56 538/630/56 524/615/112 
f 525/616/10 524/615/112 526/617/57 
f 527/618/57 526/617/57 528/619/11 
f 529/620/11 528/619/11 530/621/53 
f 531/622/53 530/621/53 532/623/26 
f 533/625/6 532/727/26 534/626/54 
f 535/627/54 534/626/54 536/628/3 
f 537/629/3 536/628/3 538/630/56 
s 4
f 538/631/60 521/647/60 520/632/113 
f 524/633/113 520/632/113 518/634/58 
f 526/635/58 518/634/58 516/636/65 
f 528/637/114 516/636/65 514/638/64 
f 530/639/64 514/638/64 512/640/115 
f 532/642/115 512/728/115 510/643/62 
f 534/644/62 510/643/62 522/645/61 
f 536/646/61 522/645/61 521/647/60 
s 1
f 577/729/118 578/730/118 579/731/119 
f 580/732/120 581/733/121 578/730/118 
f 582/734/122 583/735/122 581/733/121 
f 584/736/123 585/737/123 586/738/124 
f 587/739/125 588/740/125 585/737/123 
f 589/741/126 590/742/127 588/740/125 
f 591/743/128 592/744/129 590/742/127 
f 593/745/130 594/746/124 586/738/124 
f 595/747/131 596/748/132 579/731/119 
f 582/734/122 597/749/133 598/750/133 
s 2
f 582/751/11 593/752/11 597/753/11 
s 4
f 597/754/134 599/755/134 598/756/134 
s 2
f 598/757/3 586/758/3 583/759/3 
f 583/759/3 585/760/3 581/761/3 
f 581/761/3 588/762/3 578/763/3 
f 578/763/3 590/764/3 579/765/3 
f 579/765/3 592/766/3 600/767/3 
s 4
f 600/768/135 591/769/133 595/770/133 
s 2
f 595/771/11 589/772/11 596/773/11 
f 596/773/11 587/774/11 577/775/11 
f 577/775/11 584/776/11 580/777/11 
f 580/777/11 594/778/11 582/751/11 
f 601/779/136 602/780/136 603/781/136 
s 4
f 604/782/137 605/783/137 606/784/137 
s 8
f 601/785/138 607/786/138 604/787/138 
s 16
f 603/788/139 605/789/139 607/790/139 
s 32
f 602/791/140 606/792/140 605/793/140 
s 64
f 608/794/141 604/795/141 606/796/141 
s 1
f 579/731/119 596/748/132 577/729/118 
f 578/730/118 577/729/118 580/732/120 
f 581/733/121 580/732/120 582/734/122 
f 586/738/124 594/746/124 584/736/123 
f 585/737/123 584/736/123 587/739/125 
f 588/740/125 587/739/125 589/741/126 
f 590/742/127 589/741/126 591/743/128 
f 586/738/124 599/797/130 593/745/130 
f 579/731/119 600/798/142 595/747/131 
f 598/750/133 583/735/122 582/734/122 
s 2
f 582/751/11 594/778/11 593/752/11 
s 4
f 597/754/134 593/799/134 599/755/134 
s 2
f 598/757/3 599/800/3 586/758/3 
f 583/759/3 586/758/3 585/760/3 
f 581/761/3 585/760/3 588/762/3 
f 578/763/3 588/762/3 590/764/3 
f 579/765/3 590/764/3 592/766/3 
s 4
f 600/768/135 592/801/135 591/769/133 
s 2
f 595/771/11 591/802/11 589/772/11 
f 596/773/11 589/772/11 587/774/11 
f 577/775/11 587/774/11 584/776/11 
f 580/777/11 584/776/11 594/778/11 
f 601/779/136 608/803/136 602/780/136 
s 4
f 604/782/137 607/804/137 605/783/137 
s 8
f 601/785/138 603/805/138 607/786/138 
s 16
f 603/788/139 602/806/139 605/789/139 
s 32
f 602/791/140 608/807/140 606/792/140 
s 64
f 608/794/141 601/808/141 604/795/141 
s 8
f 609/809/143 610/810/143 611/811/144 
f 609/809/143 612/812/145 610/810/143 
f 613/813/145 614/814/146 612/812/145 
f 615/815/146 616/816/6 614/814/146 
f 617/817/6 618/818/147 616/816/6 
f 619/819/147 620/820/148 618/818/147 
f 621/821/148 622/822/149 620/820/148 
f 623/823/150 624/824/151 625/825/151 
s 1
f 622/826/4 626/827/152 610/828/4 
s off
f 627/829/2 623/830/2 628/831/2 
f 629/832/2 621/833/2 609/834/2 
f 612/835/4 614/836/4 610/828/4 
s 1
f 630/837/153 624/838/4 631/839/153 
f 626/827/152 630/837/153 632/840/152 
s off
f 624/824/3 633/841/3 634/842/3 
f 623/830/2 635/843/2 633/844/2 
f 627/845/11 636/846/11 635/847/11 
f 637/848/4 634/849/4 636/850/4 
f 638/851/2 629/832/2 611/852/2 
f 625/853/2 638/851/2 628/831/2 
s 8
f 631/854/154 637/855/154 628/856/144 
f 630/857/151 638/858/150 625/825/151 
f 632/859/144 628/856/144 611/811/144 
f 626/860/150 629/861/149 638/858/150 
f 610/810/143 632/859/144 611/811/144 
f 609/809/143 613/813/145 612/812/145 
f 613/813/145 615/815/146 614/814/146 
f 615/815/146 617/817/6 616/816/6 
f 617/817/6 619/819/147 618/818/147 
f 619/819/147 621/821/148 620/820/148 
f 621/821/148 629/861/149 622/822/149 
f 624/824/151 630/857/151 625/825/151 
s 1
f 626/827/152 632/840/152 610/828/4 
s off
f 623/830/2 625/853/2 628/831/2 
f 621/833/2 619/862/2 617/863/2 
f 617/863/2 615/864/2 613/865/2 
f 617/863/2 613/865/2 609/834/2 
f 621/833/2 617/863/2 609/834/2 
f 614/836/4 616/866/4 618/867/4 
f 618/867/4 620/868/4 622/826/4 
f 618/867/4 622/826/4 610/828/4 
f 614/836/4 618/867/4 610/828/4 
s 1
f 624/838/4 637/848/4 631/839/153 
f 630/837/153 631/839/153 632/840/152 
s off
f 624/824/3 623/823/3 633/841/3 
f 623/830/2 627/829/2 635/843/2 
f 627/845/11 637/855/11 636/846/11 
f 637/848/4 624/838/4 634/849/4 
f 629/832/2 609/834/2 611/852/2 
f 638/851/2 611/852/2 628/831/2 
s 8
f 637/855/154 627/845/144 628/856/144 
f 630/857/151 626/860/150 638/858/150 
f 632/859/144 631/854/154 628/856/144 
f 626/860/150 622/822/149 629/861/149 
s 1
f 639/869/155 640/870/156 641/871/156 
f 641/871/156 642/872/157 643/873/157 
f 643/873/157 644/874/158 645/875/158 
f 645/875/158 646/876/159 647/877/160 
f 647/877/160 648/878/161 649/879/162 
f 649/879/162 650/880/163 651/881/164 
f 651/881/164 652/882/165 653/883/166 
f 653/883/166 654/884/144 655/885/144 
f 655/885/144 656/886/167 657/887/167 
f 657/887/167 658/888/11 659/889/11 
f 660/890/3 661/891/168 662/892/168 
f 662/892/168 663/893/150 664/894/150 
f 664/894/150 665/895/169 666/896/170 
f 666/896/170 667/897/171 668/898/172 
f 668/898/172 669/899/173 670/900/174 
f 670/900/174 671/901/175 672/902/176 
f 672/902/176 673/903/177 674/904/177 
f 674/904/177 675/905/155 639/869/155 
s 4
f 656/906/4 654/907/4 663/908/4 
f 658/909/4 656/906/4 661/910/4 
f 662/911/2 664/912/2 655/913/2 
f 660/914/2 662/911/2 657/915/2 
s 2
f 654/907/178 652/916/178 665/917/178 
f 647/918/2 674/919/2 645/920/2 
f 670/921/2 672/922/2 647/918/2 
f 668/923/2 670/921/2 649/924/2 
f 666/925/2 668/923/2 651/926/2 
f 664/912/2 666/925/2 653/927/2 
s 4
f 645/920/2 639/928/2 643/929/2 
f 650/930/4 665/917/4 652/916/4 
f 648/931/4 667/932/4 650/930/4 
f 646/933/4 669/934/4 648/931/4 
f 673/935/4 671/936/4 646/933/4 
s 2
f 675/937/4 673/935/4 644/938/4 
s off
f 639/928/2 641/939/2 643/929/2 
f 640/940/4 675/937/4 642/941/4 
s 1
f 676/942/179 677/943/180 678/944/179 
f 679/945/180 680/946/181 677/943/180 
f 681/947/181 682/948/182 680/946/181 
f 683/949/182 684/950/183 682/948/182 
f 685/951/184 686/952/185 684/950/183 
f 687/953/186 688/954/187 686/952/185 
f 689/955/188 690/956/189 688/954/187 
f 691/957/190 692/958/150 690/956/189 
f 693/959/150 694/960/168 692/958/150 
f 695/961/168 696/962/3 694/960/168 
f 697/963/11 698/964/167 699/965/11 
f 700/966/191 701/967/154 698/964/167 
f 702/968/154 703/969/192 701/967/154 
f 704/970/193 705/971/194 703/969/192 
f 706/972/195 707/973/196 705/971/194 
f 708/974/197 709/975/198 707/973/196 
f 710/976/199 711/977/200 709/975/198 
f 712/978/200 678/944/179 711/977/200 
s 4
f 698/979/4 701/980/4 694/981/4 
f 699/982/4 698/979/4 696/983/4 
f 695/984/2 693/985/2 700/986/2 
f 713/987/2 695/984/2 697/988/2 
s 2
f 701/980/201 703/989/201 692/990/201 
f 685/991/2 712/992/2 710/993/2 
f 687/994/2 685/991/2 708/995/2 
f 689/996/2 687/994/2 706/997/2 
f 691/998/2 689/996/2 704/999/2 
f 693/985/2 691/998/2 702/1000/2 
s 4
f 683/1001/2 676/1002/2 712/992/2 
f 688/1003/4 703/989/4 705/1004/4 
f 686/1005/4 705/1004/4 707/1006/4 
f 684/1007/4 707/1006/4 709/1008/4 
f 682/1009/4 684/1007/4 711/1010/4 
s 2
f 680/1011/4 682/1009/4 678/1012/4 
s off
f 676/1002/2 681/1013/2 679/1014/2 
f 677/1015/4 680/1011/4 678/1012/4 
s 1
f 639/869/155 675/905/155 640/870/156 
f 641/871/156 640/870/156 642/872/157 
f 643/873/157 642/872/157 644/874/158 
f 645/875/158 644/874/158 646/876/159 
f 647/877/160 646/876/159 648/878/161 
f 649/879/162 648/878/161 650/880/163 
f 651/881/164 650/880/163 652/882/165 
f 653/883/166 652/882/165 654/884/144 
f 655/885/144 654/884/144 656/886/167 
f 657/887/167 656/886/167 658/888/11 
f 660/890/3 714/1016/3 661/891/168 
f 662/892/168 661/891/168 663/893/150 
f 664/894/150 663/893/150 665/895/169 
f 666/896/170 665/895/169 667/897/171 
f 668/898/172 667/897/171 669/899/173 
f 670/900/174 669/899/173 671/901/175 
f 672/902/176 671/901/175 673/903/177 
f 674/904/177 673/903/177 675/905/155 
s 4
f 663/908/4 661/910/4 656/906/4 
f 661/910/4 714/1017/4 658/909/4 
f 655/913/2 657/915/2 662/911/2 
f 657/915/2 659/1018/2 660/914/2 
s 2
f 665/917/178 663/908/178 654/907/178 
f 647/918/2 672/922/2 674/919/2 
f 647/918/2 649/924/2 670/921/2 
f 649/924/2 651/926/2 668/923/2 
f 651/926/2 653/927/2 666/925/2 
f 653/927/2 655/913/2 664/912/2 
s 4
f 645/920/2 674/919/2 639/928/2 
f 650/930/4 667/932/4 665/917/4 
f 648/931/4 669/934/4 667/932/4 
f 646/933/4 671/936/4 669/934/4 
f 646/933/4 644/938/4 673/935/4 
s 2
f 644/938/4 642/941/4 675/937/4 
s 1
f 676/942/179 679/945/180 677/943/180 
f 679/945/180 681/947/181 680/946/181 
f 681/947/181 683/949/182 682/948/182 
f 683/949/182 685/951/184 684/950/183 
f 685/951/184 687/953/186 686/952/185 
f 687/953/186 689/955/188 688/954/187 
f 689/955/188 691/957/190 690/956/189 
f 691/957/190 693/959/150 692/958/150 
f 693/959/150 695/961/168 694/960/168 
f 695/961/168 713/1019/3 696/962/3 
f 697/963/11 700/966/191 698/964/167 
f 700/966/191 702/968/154 701/967/154 
f 702/968/154 704/970/193 703/969/192 
f 704/970/193 706/972/195 705/971/194 
f 706/972/195 708/974/197 707/973/196 
f 708/974/197 710/976/199 709/975/198 
f 710/976/199 712/978/200 711/977/200 
f 712/978/200 676/942/179 678/944/179 
s 4
f 701/980/4 692/990/4 694/981/4 
f 698/979/4 694/981/4 696/983/4 
f 693/985/2 702/1000/2 700/986/2 
f 695/984/2 700/986/2 697/988/2 
s 2
f 703/989/201 690/1020/178 692/990/201 
f 685/991/2 683/1001/2 712/992/2 
f 685/991/2 710/993/2 708/995/2 
f 687/994/2 708/995/2 706/997/2 
f 689/996/2 706/997/2 704/999/2 
f 691/998/2 704/999/2 702/1000/2 
s 4
f 683/1001/2 681/1013/2 676/1002/2 
f 688/1003/4 690/1020/4 703/989/4 
f 686/1005/4 688/1003/4 705/1004/4 
f 684/1007/4 686/1005/4 707/1006/4 
f 684/1007/4 709/1008/4 711/1010/4 
s 2
f 682/1009/4 711/1010/4 678/1012/4 
# 1032 faces

